<?xml version="1.0" standalone="no"?>
<!DOCTYPE svg PUBLIC "-//W3C//DTD SVG 20010904//EN"
 "http://www.w3.org/TR/2001/REC-SVG-20010904/DTD/svg10.dtd">
<svg version="1.0" xmlns="http://www.w3.org/2000/svg"
 width="260.000000pt" height="260.000000pt" viewBox="0 0 260.000000 260.000000"
 preserveAspectRatio="xMidYMid meet">
<metadata>
Created by potrace 1.11, written by Peter Selinger 2001-2013
</metadata>
<g transform="translate(0.000000,260.000000) scale(0.100000,-0.100000)"
fill="#000000" stroke="none">
<path d="M1184 2491 c-48 -22 -86 -65 -109 -124 l-17 -44 -68 -5 c-48 -4 -82
-13 -115 -31 l-47 -27 -41 35 c-93 80 -228 98 -334 45 -114 -57 -246 -218
-334 -405 -23 -48 -42 -93 -43 -99 -1 -6 -4 -15 -7 -21 -7 -11 -34 -128 -43
-182 -6 -36 11 -65 107 -183 90 -110 132 -154 233 -244 104 -93 330 -250 421
-292 l63 -29 0 -82 c0 -46 1 -85 2 -88 0 -2 7 -33 14 -67 20 -101 22 -106 50
-159 37 -66 125 -153 189 -184 28 -14 80 -30 116 -36 74 -11 106 -17 134 -23
87 -19 135 -32 241 -66 66 -22 143 -44 170 -50 27 -7 58 -14 69 -16 78 -18
208 6 268 48 l29 21 66 -27 c181 -71 319 -69 355 7 28 57 -2 124 -103 230
l-69 73 29 19 c56 38 66 87 39 193 -10 40 -36 107 -58 150 -29 57 -38 85 -34
108 8 48 -13 106 -52 144 -29 29 -43 34 -86 36 -57 3 -62 5 -66 37 -17 129
-71 284 -139 401 -45 78 -138 205 -184 254 -12 13 -20 25 -19 27 2 1 40 6 84
9 132 10 186 29 237 83 71 74 42 256 -55 353 -92 92 -301 184 -466 205 -30 4
-63 9 -75 11 -12 3 -87 7 -167 9 -123 3 -152 0 -185 -14z"/>
</g>
</svg>
