<svg xmlns="http://www.w3.org/2000/svg" viewBox="0 0 515.99 456.51"><defs><style>.cls-1{fill:#bc4a4a;}.cls-1,.cls-2,.cls-3,.cls-4,.cls-5{stroke:#020202;stroke-linecap:round;stroke-linejoin:round;}.cls-1,.cls-2,.cls-3,.cls-4{stroke-width:6px;}.cls-2{fill:none;}.cls-3,.cls-6{fill:#fff;}</style></defs><title>Artboard 1-full</title><g id="Layer_2" data-name="Layer 2"><path class="cls-1" d="M467.59,402.54s24.07,19.36,20.4,28-25,3.21-37.94-3.95c-9.76-8.84-12.87-17.63-12.87-17.63l12.89.18s8.76-.73,13.68-6.15a27.9,27.9,0,0,0,3.84-.46Z"/><path class="cls-2" d="M454.66,408.29a54.13,54.13,0,0,1,13.5,11.91"/><path class="cls-3" d="M324,408.55s4.55-3.75,9.45-4.77,7.58.48,7.58.48h0c5.52,7.35,13.78,13.21,19.43,14.33,8,1.59,15.5,2.12,27.5,5.28s28,9,40.46,7.53a108.48,108.48,0,0,0,21.6-4.8c-9.76-8.84-12.87-17.63-12.87-17.63l12.89.18s8.76-.73,13.68-6.15a27.9,27.9,0,0,0,3.84-.46c3.41-.65,8.17-2.18,10.29-5.83,0,0,12.78,7.94,18.78-2.12s3.89-17.5-2.77-21.32-23.23-6.57-23.23-6.57h0a24.11,24.11,0,0,0-3.67-3.19l-10.56-17.64s-2.57-.78-6.36-2.07h0c-1.65-15.11-3.74-28.27-12.08-42.56S411,269,411,269h0a28.2,28.2,0,0,0,10,2.28c11,.23,32-.74,30.5-17.24s-11-24-28.5-31.5-40.33-8.33-55-8-16.05,18.23-16.05,18.23h0a42.72,42.72,0,0,0-8.14-.9c-8.52,0-17.43,7.65-17.43,7.65h0C323.5,234,317.5,228.21,305,227.2c-8.7-.71-17.5,5.15-25.23,13.93h0S259,224,236,205s-48.5-36-48.5-36,22.5-6.75-1.5-44.18c-7.56-11.79-22.6-31.13-40-44C129.4,68.6,110.24,62.53,110.24,62.53c19.25-28.25-23-61.91-48.4-47.34C30.74,33,50.3,63.57,50.24,65.53c0,0-32.25,19.5-36.75,77s44,121.5,44,121.5,3.5,41.5-.83,49.5-3,12-1.67,15.67,20.67,46,22.34,64,17.33,31,21.33,30.66,8.33,0,11.33-3.66a34.41,34.41,0,0,0,9.5,2c4.24.26,7-.68,8.94-3.74h0s5.4,2.07,8.31,1.94c2.25-.09,4-1.23,5.49-3.72h0c8.86.66,13.68-3.95,6.76-14.15a69.57,69.57,0,0,0-13.37-14A124.53,124.53,0,0,0,115,375.86S98,351.53,99.49,327c1.19-19.45,7.43-40.79,16.2-55.77h0l69.56,82.12h0c-10.73,14.14-20.41,27-22.27,29.64-4.5,6.5-4.5,22,0,27s15,13.68,22,13.84,61.5.16,81,2.66,27.5,4.5,27.5,4.5,6.49,7.17,12.5,7c9.88-.28,12.56-5.1,12.39-6.63,0,0,5,4.32,8.36,5.5,4.49,1.58,14.32-1.25,12.16-6.38v0c3.51,0,5.66-1.21,4.53-9.52-.7-5.13-5.7-8.5-11.22-11.09C330.52,409.14,327.37,408.74,324,408.55Z"/><path class="cls-2" d="M110,420.2c3-3.67-3.33-8-3.33-8"/><path class="cls-2" d="M123,409.09a10,10,0,0,1,5.75,6.62,3.42,3.42,0,0,1-.27,2.75"/><path class="cls-2" d="M137.22,405c3,1.75,6.33,4.62,6,8.75a6.69,6.69,0,0,1-1,2.9"/><path class="cls-2" d="M128.49,186.53c6,4.5,10.45,10.87,11,22.12,1,20.21-4,38.38-16.5,52.38a64.5,64.5,0,0,0-7.3,10.23"/><path class="cls-2" d="M312,423.87c4.75.91,6.05,4.33,6.39,7.53"/><path class="cls-2" d="M218,310.4s-17.43,22.83-32.73,43"/><path class="cls-2" d="M331.12,420.4c4.47.41,6.32,5.9,7.78,10.12"/><path class="cls-2" d="M279.76,241.13c-14.16,16.1-24.77,42-24.77,55.4,0,0,17.34,26.67,43.34,45.33S329,360.53,329,360.53s15.33,4.38,18.66-7.14,0-55.53,0-55.53,2-10.66,9.33-12"/><path class="cls-2" d="M329,249.86a23.07,23.07,0,0,0-2.63-10.35"/><path class="cls-2" d="M362.33,235.69a71,71,0,0,0-10.39-2.93"/><path class="cls-2" d="M388.49,271.27s1-7.74,7-8.24c4-.34,9.21,3.4,15.52,6"/><path class="cls-2" d="M463.75,403a12.52,12.52,0,0,0,3.24-8.63c0-7.59-4-10.59-4-10.59"/><path class="cls-3" d="M408.66,301.53c2.33-7,6.5-8.75,14.17-4.75s10.75,11.57,12.41,16.57,1.5,10.55-.62,14.3c-2.95,5.21-7.15,4.28-7.15,4.28"/><path class="cls-2" d="M386.36,401.89s.12-.38,5.35,4.14c3.62,3.12,15.78,2.5,15.78,2.5l29.69.44"/><path class="cls-2" d="M421.45,327.9c4.77,4.87,18.84,12.58,28.62,15.9"/><path class="cls-4" d="M421.45,327.9c-4.67-7.33-15.12-19.37-12.79-26.37,0,0,10.08,3.67,13.42,12s1.92,12.78-.63,14.37"/><path class="cls-4" d="M464.09,369.78s-11.85,11-23.85,2.75-7.5-14.75,1.5-18.75,14-8.92,18-8.58,12.16,7.71,8.25,16.15Z"/><path class="cls-3" d="M392.24,339.21c4.92-.73,8.09-2.72,8.5-7.43a26.06,26.06,0,0,0-1.62-10.88c-1.87-5.08-5.63-15.12-15-15.62-3.43-.18-6.88,2.37-8.35,6"/><path class="cls-2" d="M332.16,374.9c-1.29-6.84-3.16-14.37-3.16-14.37"/><path class="cls-2" d="M341.06,404.26a46.81,46.81,0,0,1-6.07-12"/><circle class="cls-5" cx="436.23" cy="395.55" r="3.27"/><circle class="cls-5" cx="428.45" cy="386.78" r="3"/><circle class="cls-5" cx="419.12" cy="382.17" r="3.12"/><circle class="cls-5" cx="419.87" cy="394.65" r="2.37"/><path class="cls-4" d="M375.77,311.27a22.23,22.23,0,0,0-2.53,11.51c0,10.37,3.76,14,10.25,15.91a27.56,27.56,0,0,0,8.75.52s.47-7.41-6.08-17.68S375.77,311.27,375.77,311.27Z"/><path class="cls-2" d="M477.88,396.71a8,8,0,0,0,.83-2.06c1.09-4.35-4.89-20.82-8-27.95"/><path class="cls-2" d="M251.3,386.57a50.48,50.48,0,0,0,17-28.37"/><path class="cls-2" d="M324,408.55c-5.9-.35-31.09-10.15-48.3-16.27a125,125,0,0,0-32.75-6.5"/><path class="cls-2" d="M124.66,22.12a7.55,7.55,0,0,0,6.23-2.7c2.25-2.5,2.23-11.14-2.17-17.64"/><path class="cls-2" d="M140.15,27.84a7.57,7.57,0,0,0,6.23-2.71c2.25-2.5,2.23-11.14-2.17-17.64"/><path class="cls-2" d="M148.46,42.48a7.57,7.57,0,0,0,6.24-2.71c2.24-2.5,2.22-11.14-2.17-17.64"/></g><g id="Layer_4" data-name="Layer 4"><ellipse class="cls-6" cx="383.33" cy="317.01" rx="4.58" ry="3.21"/><ellipse class="cls-6" cx="417.93" cy="306.13" rx="4.58" ry="3.21"/><ellipse class="cls-6" cx="447.76" cy="359.2" rx="4.58" ry="3.21" transform="translate(-62.38 96.01) rotate(-11.45)"/></g></svg>