<?xml version="1.0" encoding="utf-8"?>
<!-- Generator: Adobe Illustrator 22.1.0, SVG Export Plug-In . SVG Version: 6.00 Build 0)  -->
<svg version="1.1" id="Layer_1" xmlns="http://www.w3.org/2000/svg" xmlns:xlink="http://www.w3.org/1999/xlink" x="0px" y="0px"
	 viewBox="0 0 512 512" style="enable-background:new 0 0 512 512;" xml:space="preserve">
<style type="text/css">
	.st0{fill:#484848;}
</style>
<path class="st0" d="M496,96h-64l-7.2-14.3C419.4,70.8,408.3,64,396.2,64h-53.6l-27.3-27.3C305.2,26.6,288,33.8,288,48v149.8
	l128,45.7V208h32c35.4,0,64-28.6,64-64v-32C512,103.2,504.8,96,496,96z M384,144c-8.8,0-16-7.2-16-16s7.2-16,16-16s16,7.2,16,16
	S392.8,144,384,144z M96,224c-17.6,0-32-14.4-32-32c0-17.7-14.3-32-32-32S0,174.3,0,192c0,41.7,26.8,76.9,64,90.1V496
	c0,8.8,7.2,16,16,16h64c8.8,0,16-7.2,16-16V384h160v112c0,8.8,7.2,16,16,16h64c8.8,0,16-7.2,16-16V277.5L266,224H96z"/>
</svg>
