<?xml version="1.0" encoding="utf-8"?>
<!-- Generator: Adobe Illustrator 22.1.0, SVG Export Plug-In . SVG Version: 6.00 Build 0)  -->
<svg version="1.1" id="Layer_1" xmlns="http://www.w3.org/2000/svg" xmlns:xlink="http://www.w3.org/1999/xlink" x="0px" y="0px"
	 viewBox="0 0 493 442.2" style="enable-background:new 0 0 493 442.2;" xml:space="preserve">
<style type="text/css">
	.st0{fill:#BC4A4A;stroke:#020202;stroke-width:6;stroke-linecap:round;stroke-linejoin:round;}
	.st1{fill:none;stroke:#020202;stroke-width:6;stroke-linecap:round;stroke-linejoin:round;}
	.st2{fill:#F0F0F0;stroke:#020202;stroke-width:6;stroke-linecap:round;stroke-linejoin:round;}
	.st3{stroke:#020202;stroke-width:6;stroke-linecap:round;stroke-linejoin:round;}
	.st4{stroke:#020202;stroke-linecap:round;stroke-linejoin:round;}
	.st5{fill:#F0F0F0;}
</style>
<title>Artboard 1-full</title>
<g id="Layer_2_1_">
	<path class="st0" d="M457.4,403.8c0,0,24.1,19.4,20.4,28s-25,3.2-37.9-4c-9.8-8.8-12.9-17.6-12.9-17.6l12.9,0.2
		c0,0,8.8-0.7,13.7-6.1C454.8,404.1,456.1,404,457.4,403.8L457.4,403.8z"/>
	<path class="st1" d="M444.5,409.5c5.1,3.2,9.7,7.2,13.5,11.9"/>
	<path class="st2" d="M313.8,409.8c0,0,4.5-3.8,9.5-4.8s7.6,0.5,7.6,0.5l0,0c5.5,7.4,13.8,13.2,19.4,14.3c8,1.6,15.5,2.1,27.5,5.3
		s28,9,40.5,7.5c7.3-0.9,14.6-2.5,21.6-4.8c-9.8-8.8-12.9-17.6-12.9-17.6l12.9,0.2c0,0,8.8-0.7,13.7-6.1c1.3-0.1,2.6-0.2,3.8-0.5
		c3.4-0.6,8.2-2.2,10.3-5.8c0,0,12.8,7.9,18.8-2.1s3.9-17.5-2.8-21.3s-23.2-6.6-23.2-6.6l0,0c-1.1-1.2-2.3-2.3-3.7-3.2l-10.6-17.6
		c0,0-2.6-0.8-6.4-2.1l0,0c-1.6-15.1-3.7-28.3-12.1-42.6s-27-32.2-27-32.2l0,0c3.2,1.4,6.6,2.1,10,2.3c11,0.2,32-0.7,30.5-17.2
		s-11-24-28.5-31.5s-40.3-8.3-55-8s-16,18.2-16,18.2l0,0c-2.7-0.6-5.4-0.9-8.1-0.9c-8.5,0-17.4,7.6-17.4,7.6l0,0
		c-2.9-5.5-8.9-11.3-21.4-12.3c-8.7-0.7-17.5,5.1-25.2,13.9l0,0c0,0-20.8-17.1-43.8-36.1s-48.5-36-48.5-36s22.5-6.8-1.5-44.2
		c-7.6-11.8-22.6-31.1-40-44C119.2,69.8,100,63.8,100,63.8c19.2-28.3-23-61.9-48.4-47.3C20.5,34.2,40.1,64.8,40,66.8
		c0,0-32.3,19.5-36.8,77s44,121.5,44,121.5s3.5,41.5-0.8,49.5s-3,12-1.7,15.7s20.7,46,22.3,64s17.3,31,21.3,30.7s8.3,0,11.3-3.7
		c3.1,1.1,6.3,1.8,9.5,2c4.2,0.3,7-0.7,8.9-3.7l0,0c0,0,5.4,2.1,8.3,1.9c2.3-0.1,4-1.2,5.5-3.7l0,0c8.9,0.7,13.7-4,6.8-14.1
		c-3.8-5.3-8.3-10-13.4-14c-6.4-4.9-13.4-9.1-20.6-12.7c0,0-17-24.3-15.5-48.9c1.2-19.5,7.4-40.8,16.2-55.8l0,0l69.6,82.1l0,0
		c-10.7,14.1-20.4,27-22.3,29.6c-4.5,6.5-4.5,22,0,27s15,13.7,22,13.8s61.5,0.2,81,2.7s27.5,4.5,27.5,4.5s6.5,7.2,12.5,7
		c9.9-0.3,12.6-5.1,12.4-6.6c0,0,5,4.3,8.4,5.5c4.5,1.6,14.3-1.3,12.2-6.4l0,0c3.5,0,5.7-1.2,4.5-9.5c-0.7-5.1-5.7-8.5-11.2-11.1
		C320.3,410.4,317.2,410,313.8,409.8z"/>
	<path class="st1" d="M99.8,421.4c3-3.7-3.3-8-3.3-8"/>
	<path class="st1" d="M112.8,410.3c2.8,1.2,5,3.6,5.8,6.6c0.3,0.9,0.2,1.9-0.3,2.8"/>
	<path class="st1" d="M127,406.2c3,1.8,6.3,4.6,6,8.8c-0.1,1-0.4,2-1,2.9"/>
	<path class="st1" d="M118.3,187.8c6,4.5,10.4,10.9,11,22.1c1,20.2-4,38.4-16.5,52.4c-2.8,3.2-5.2,6.6-7.3,10.2"/>
	<path class="st1" d="M301.8,425.1c4.8,0.9,6,4.3,6.4,7.5"/>
	<path class="st1" d="M207.8,311.6c0,0-17.4,22.8-32.7,43"/>
	<path class="st1" d="M320.9,421.6c4.5,0.4,6.3,5.9,7.8,10.1"/>
	<path class="st1" d="M269.6,242.4c-14.2,16.1-24.8,42-24.8,55.4c0,0,17.3,26.7,43.3,45.3s30.7,18.7,30.7,18.7s15.3,4.4,18.7-7.1
		s0-55.5,0-55.5s2-10.7,9.3-12"/>
	<path class="st1" d="M318.8,251.1c-0.1-3.6-1-7.2-2.6-10.4"/>
	<path class="st1" d="M352.1,236.9c-3.4-1.2-6.9-2.2-10.4-2.9"/>
	<path class="st1" d="M378.3,272.5c0,0,1-7.7,7-8.2c4-0.3,9.2,3.4,15.5,6"/>
	<path class="st1" d="M453.6,404.2c2.1-2.4,3.3-5.4,3.2-8.6c0-7.6-4-10.6-4-10.6"/>
	<path class="st2" d="M398.5,302.8c2.3-7,6.5-8.8,14.2-4.8s10.8,11.6,12.4,16.6s1.5,10.5-0.6,14.3c-3,5.2-7.1,4.3-7.1,4.3"/>
	<path class="st1" d="M376.2,403.1c0,0,0.1-0.4,5.4,4.1c3.6,3.1,15.8,2.5,15.8,2.5l29.7,0.4"/>
	<path class="st1" d="M411.3,329.1c4.8,4.9,18.8,12.6,28.6,15.9"/>
	<path class="st3" d="M411.3,329.1c-4.7-7.3-15.1-19.4-12.8-26.4c0,0,10.1,3.7,13.4,12S413.8,327.5,411.3,329.1"/>
	<path class="st3" d="M453.9,371c0,0-11.9,11-23.9,2.8s-7.5-14.8,1.5-18.8s14-8.9,18-8.6s12.2,7.7,8.3,16.1L453.9,371z"/>
	<path class="st2" d="M382,340.4c4.9-0.7,8.1-2.7,8.5-7.4c0.2-3.7-0.3-7.4-1.6-10.9c-1.9-5.1-5.6-15.1-15-15.6
		c-3.4-0.2-6.9,2.4-8.4,6"/>
	<path class="st1" d="M322,376.1c-1.3-6.8-3.2-14.4-3.2-14.4"/>
	<path class="st1" d="M330.9,405.5c-2.6-3.7-4.6-7.7-6.1-12"/>
	<circle class="st4" cx="426" cy="396.8" r="3.3"/>
	<circle class="st4" cx="418.3" cy="388" r="3"/>
	<circle class="st4" cx="408.9" cy="383.4" r="3.1"/>
	<circle class="st4" cx="409.7" cy="395.9" r="2.4"/>
	<path class="st3" d="M365.6,312.5c-1.9,3.5-2.7,7.5-2.5,11.5c0,10.4,3.8,14,10.3,15.9c2.9,0.6,5.8,0.8,8.8,0.5
		c0,0,0.5-7.4-6.1-17.7S365.6,312.5,365.6,312.5z"/>
	<path class="st1" d="M467.7,397.9c0.4-0.6,0.7-1.3,0.8-2.1c1.1-4.4-4.9-20.8-8-28"/>
	<path class="st1" d="M241.1,387.8c8.7-7.3,14.7-17.3,17-28.4"/>
	<path class="st1" d="M313.8,409.8c-5.9-0.4-31.1-10.1-48.3-16.3c-10.6-3.6-21.6-5.8-32.8-6.5"/>
	<path class="st1" d="M114.5,23.3c2.4,0.1,4.7-0.9,6.2-2.7c2.3-2.5,2.2-11.1-2.2-17.6"/>
	<path class="st1" d="M130,29.1c2.4,0.1,4.7-0.9,6.2-2.7c2.3-2.5,2.2-11.1-2.2-17.6"/>
	<path class="st1" d="M138.3,43.7c2.4,0.1,4.7-0.9,6.2-2.7c2.2-2.5,2.2-11.1-2.2-17.6"/>
</g>
<g id="Layer_4">
	<ellipse class="st5" cx="373.1" cy="318.2" rx="4.6" ry="3.2"/>
	<ellipse class="st5" cx="407.7" cy="307.4" rx="4.6" ry="3.2"/>
	
		<ellipse transform="matrix(0.9801 -0.1985 0.1985 0.9801 -62.8345 94.0376)" class="st5" cx="437.6" cy="360.4" rx="4.6" ry="3.2"/>
</g>
</svg>
