<?xml version="1.0" encoding="UTF-8" standalone="no"?>
<!-- Generator: Adobe Illustrator 22.1.0, SVG Export Plug-In . SVG Version: 6.00 Build 0)  -->

<svg
   xmlns:dc="http://purl.org/dc/elements/1.1/"
   xmlns:cc="http://creativecommons.org/ns#"
   xmlns:rdf="http://www.w3.org/1999/02/22-rdf-syntax-ns#"
   xmlns:svg="http://www.w3.org/2000/svg"
   xmlns="http://www.w3.org/2000/svg"
   xmlns:sodipodi="http://sodipodi.sourceforge.net/DTD/sodipodi-0.dtd"
   xmlns:inkscape="http://www.inkscape.org/namespaces/inkscape"
   version="1.1"
   id="Layer_1"
   x="0px"
   y="0px"
   viewBox="0 0 493 442.2"
   style="enable-background:new 0 0 493 442.2;"
   xml:space="preserve"
   sodipodi:docname="lodo-dog-lt-grey.svg"
   inkscape:version="0.92.4 (33fec40, 2019-01-16)"><metadata
   id="metadata1025"><rdf:RDF><cc:Work
       rdf:about=""><dc:format>image/svg+xml</dc:format><dc:type
         rdf:resource="http://purl.org/dc/dcmitype/StillImage" /><dc:title>Artboard 1-full</dc:title></cc:Work></rdf:RDF></metadata><defs
   id="defs1023" /><sodipodi:namedview
   pagecolor="#ffffff"
   bordercolor="#666666"
   borderopacity="1"
   objecttolerance="10"
   gridtolerance="10"
   guidetolerance="10"
   inkscape:pageopacity="0"
   inkscape:pageshadow="2"
   inkscape:window-width="1366"
   inkscape:window-height="713"
   id="namedview1021"
   showgrid="false"
   inkscape:zoom="1.2098598"
   inkscape:cx="246.5"
   inkscape:cy="221.10001"
   inkscape:window-x="0"
   inkscape:window-y="0"
   inkscape:window-maximized="1"
   inkscape:current-layer="Layer_1" />
<style
   type="text/css"
   id="style940">
	.st0{fill:#BC4A4A;stroke:#020202;stroke-width:6;stroke-linecap:round;stroke-linejoin:round;}
	.st1{fill:none;stroke:#020202;stroke-width:6;stroke-linecap:round;stroke-linejoin:round;}
	.st2{fill:#F0F0F0;stroke:#020202;stroke-width:6;stroke-linecap:round;stroke-linejoin:round;}
	.st3{stroke:#020202;stroke-width:6;stroke-linecap:round;stroke-linejoin:round;}
	.st4{stroke:#020202;stroke-linecap:round;stroke-linejoin:round;}
	.st5{fill:#F0F0F0;}
</style>
<title
   id="title942">Artboard 1-full</title>
<g
   id="Layer_2_1_"
   transform="matrix(-1,0,0,1,492.94031,0)">
	<path
   class="st0"
   d="m 457.4,403.8 c 0,0 24.1,19.4 20.4,28 -3.7,8.6 -25,3.2 -37.9,-4 C 430.1,419 427,410.2 427,410.2 l 12.9,0.2 c 0,0 8.8,-0.7 13.7,-6.1 1.2,-0.2 2.5,-0.3 3.8,-0.5 z"
   id="path944"
   inkscape:connector-curvature="0"
   style="fill:#bc4a4a;stroke:#020202;stroke-width:6;stroke-linecap:round;stroke-linejoin:round" />
	<path
   class="st1"
   d="m 444.5,409.5 c 5.1,3.2 9.7,7.2 13.5,11.9"
   id="path946"
   inkscape:connector-curvature="0"
   style="fill:none;stroke:#020202;stroke-width:6;stroke-linecap:round;stroke-linejoin:round" />
	<path
   class="st2"
   d="m 313.8,409.8 c 0,0 4.5,-3.8 9.5,-4.8 5,-1 7.6,0.5 7.6,0.5 v 0 c 5.5,7.4 13.8,13.2 19.4,14.3 8,1.6 15.5,2.1 27.5,5.3 12,3.2 28,9 40.5,7.5 7.3,-0.9 14.6,-2.5 21.6,-4.8 C 430.1,419 427,410.2 427,410.2 l 12.9,0.2 c 0,0 8.8,-0.7 13.7,-6.1 1.3,-0.1 2.6,-0.2 3.8,-0.5 3.4,-0.6 8.2,-2.2 10.3,-5.8 0,0 12.8,7.9 18.8,-2.1 6,-10 3.9,-17.5 -2.8,-21.3 -6.7,-3.8 -23.2,-6.6 -23.2,-6.6 v 0 c -1.1,-1.2 -2.3,-2.3 -3.7,-3.2 l -10.6,-17.6 c 0,0 -2.6,-0.8 -6.4,-2.1 v 0 c -1.6,-15.1 -3.7,-28.3 -12.1,-42.6 -8.4,-14.3 -27,-32.2 -27,-32.2 v 0 c 3.2,1.4 6.6,2.1 10,2.3 11,0.2 32,-0.7 30.5,-17.2 -1.5,-16.5 -11,-24 -28.5,-31.5 -17.5,-7.5 -40.3,-8.3 -55,-8 -14.7,0.3 -16,18.2 -16,18.2 v 0 c -2.7,-0.6 -5.4,-0.9 -8.1,-0.9 -8.5,0 -17.4,7.6 -17.4,7.6 v 0 c -2.9,-5.5 -8.9,-11.3 -21.4,-12.3 -8.7,-0.7 -17.5,5.1 -25.2,13.9 v 0 c 0,0 -20.8,-17.1 -43.8,-36.1 -23,-19 -48.5,-36 -48.5,-36 0,0 22.5,-6.8 -1.5,-44.2 -7.6,-11.8 -22.6,-31.1 -40,-44 C 119.2,69.8 100,63.8 100,63.8 119.2,35.5 77,1.9 51.6,16.5 20.5,34.2 40.1,64.8 40,66.8 c 0,0 -32.3,19.5 -36.8,77 -4.5,57.5 44,121.5 44,121.5 0,0 3.5,41.5 -0.8,49.5 -4.3,8 -3,12 -1.7,15.7 1.3,3.7 20.7,46 22.3,64 1.6,18 17.3,31 21.3,30.7 4,-0.3 8.3,0 11.3,-3.7 3.1,1.1 6.3,1.8 9.5,2 4.2,0.3 7,-0.7 8.9,-3.7 v 0 c 0,0 5.4,2.1 8.3,1.9 2.3,-0.1 4,-1.2 5.5,-3.7 v 0 c 8.9,0.7 13.7,-4 6.8,-14.1 -3.8,-5.3 -8.3,-10 -13.4,-14 -6.4,-4.9 -13.4,-9.1 -20.6,-12.7 0,0 -17,-24.3 -15.5,-48.9 1.2,-19.5 7.4,-40.8 16.2,-55.8 v 0 l 69.6,82.1 v 0 c -10.7,14.1 -20.4,27 -22.3,29.6 -4.5,6.5 -4.5,22 0,27 4.5,5 15,13.7 22,13.8 7,0.1 61.5,0.2 81,2.7 19.5,2.5 27.5,4.5 27.5,4.5 0,0 6.5,7.2 12.5,7 9.9,-0.3 12.6,-5.1 12.4,-6.6 0,0 5,4.3 8.4,5.5 4.5,1.6 14.3,-1.3 12.2,-6.4 v 0 c 3.5,0 5.7,-1.2 4.5,-9.5 -0.7,-5.1 -5.7,-8.5 -11.2,-11.1 -1.6,-0.7 -4.7,-1.1 -8.1,-1.3 z"
   id="path948"
   inkscape:connector-curvature="0"
   style="fill:#f0f0f0;stroke:#020202;stroke-width:6;stroke-linecap:round;stroke-linejoin:round" />
	<path
   class="st1"
   d="m 99.8,421.4 c 3,-3.7 -3.3,-8 -3.3,-8"
   id="path950"
   inkscape:connector-curvature="0"
   style="fill:none;stroke:#020202;stroke-width:6;stroke-linecap:round;stroke-linejoin:round" />
	<path
   class="st1"
   d="m 112.8,410.3 c 2.8,1.2 5,3.6 5.8,6.6 0.3,0.9 0.2,1.9 -0.3,2.8"
   id="path952"
   inkscape:connector-curvature="0"
   style="fill:none;stroke:#020202;stroke-width:6;stroke-linecap:round;stroke-linejoin:round" />
	<path
   class="st1"
   d="m 127,406.2 c 3,1.8 6.3,4.6 6,8.8 -0.1,1 -0.4,2 -1,2.9"
   id="path954"
   inkscape:connector-curvature="0"
   style="fill:none;stroke:#020202;stroke-width:6;stroke-linecap:round;stroke-linejoin:round" />
	<path
   class="st1"
   d="m 118.3,187.8 c 6,4.5 10.4,10.9 11,22.1 1,20.2 -4,38.4 -16.5,52.4 -2.8,3.2 -5.2,6.6 -7.3,10.2"
   id="path956"
   inkscape:connector-curvature="0"
   style="fill:none;stroke:#020202;stroke-width:6;stroke-linecap:round;stroke-linejoin:round" />
	<path
   class="st1"
   d="m 301.8,425.1 c 4.8,0.9 6,4.3 6.4,7.5"
   id="path958"
   inkscape:connector-curvature="0"
   style="fill:none;stroke:#020202;stroke-width:6;stroke-linecap:round;stroke-linejoin:round" />
	<path
   class="st1"
   d="m 207.8,311.6 c 0,0 -17.4,22.8 -32.7,43"
   id="path960"
   inkscape:connector-curvature="0"
   style="fill:none;stroke:#020202;stroke-width:6;stroke-linecap:round;stroke-linejoin:round" />
	<path
   class="st1"
   d="m 320.9,421.6 c 4.5,0.4 6.3,5.9 7.8,10.1"
   id="path962"
   inkscape:connector-curvature="0"
   style="fill:none;stroke:#020202;stroke-width:6;stroke-linecap:round;stroke-linejoin:round" />
	<path
   class="st1"
   d="m 269.6,242.4 c -14.2,16.1 -24.8,42 -24.8,55.4 0,0 17.3,26.7 43.3,45.3 26,18.6 30.7,18.7 30.7,18.7 0,0 15.3,4.4 18.7,-7.1 3.4,-11.5 0,-55.5 0,-55.5 0,0 2,-10.7 9.3,-12"
   id="path964"
   inkscape:connector-curvature="0"
   style="fill:none;stroke:#020202;stroke-width:6;stroke-linecap:round;stroke-linejoin:round" />
	<path
   class="st1"
   d="m 318.8,251.1 c -0.1,-3.6 -1,-7.2 -2.6,-10.4"
   id="path966"
   inkscape:connector-curvature="0"
   style="fill:none;stroke:#020202;stroke-width:6;stroke-linecap:round;stroke-linejoin:round" />
	<path
   class="st1"
   d="m 352.1,236.9 c -3.4,-1.2 -6.9,-2.2 -10.4,-2.9"
   id="path968"
   inkscape:connector-curvature="0"
   style="fill:none;stroke:#020202;stroke-width:6;stroke-linecap:round;stroke-linejoin:round" />
	<path
   class="st1"
   d="m 378.3,272.5 c 0,0 1,-7.7 7,-8.2 4,-0.3 9.2,3.4 15.5,6"
   id="path970"
   inkscape:connector-curvature="0"
   style="fill:none;stroke:#020202;stroke-width:6;stroke-linecap:round;stroke-linejoin:round" />
	<path
   class="st1"
   d="m 453.6,404.2 c 2.1,-2.4 3.3,-5.4 3.2,-8.6 0,-7.6 -4,-10.6 -4,-10.6"
   id="path972"
   inkscape:connector-curvature="0"
   style="fill:none;stroke:#020202;stroke-width:6;stroke-linecap:round;stroke-linejoin:round" />
	<path
   class="st2"
   d="m 398.5,302.8 c 2.3,-7 6.5,-8.8 14.2,-4.8 7.7,4 10.8,11.6 12.4,16.6 1.6,5 1.5,10.5 -0.6,14.3 -3,5.2 -7.1,4.3 -7.1,4.3"
   id="path974"
   inkscape:connector-curvature="0"
   style="fill:#f0f0f0;stroke:#020202;stroke-width:6;stroke-linecap:round;stroke-linejoin:round" />
	<path
   class="st1"
   d="m 376.2,403.1 c 0,0 0.1,-0.4 5.4,4.1 3.6,3.1 15.8,2.5 15.8,2.5 l 29.7,0.4"
   id="path976"
   inkscape:connector-curvature="0"
   style="fill:none;stroke:#020202;stroke-width:6;stroke-linecap:round;stroke-linejoin:round" />
	<path
   class="st1"
   d="m 411.3,329.1 c 4.8,4.9 18.8,12.6 28.6,15.9"
   id="path978"
   inkscape:connector-curvature="0"
   style="fill:none;stroke:#020202;stroke-width:6;stroke-linecap:round;stroke-linejoin:round" />
	<path
   class="st3"
   d="m 411.3,329.1 c -4.7,-7.3 -15.1,-19.4 -12.8,-26.4 0,0 10.1,3.7 13.4,12 3.3,8.3 1.9,12.8 -0.6,14.4"
   id="path980"
   inkscape:connector-curvature="0"
   style="stroke:#020202;stroke-width:6;stroke-linecap:round;stroke-linejoin:round" />
	<path
   class="st3"
   d="m 453.9,371 c 0,0 -11.9,11 -23.9,2.8 -12,-8.2 -7.5,-14.8 1.5,-18.8 9,-4 14,-8.9 18,-8.6 4,0.3 12.2,7.7 8.3,16.1 z"
   id="path982"
   inkscape:connector-curvature="0"
   style="stroke:#020202;stroke-width:6;stroke-linecap:round;stroke-linejoin:round" />
	<path
   class="st2"
   d="m 382,340.4 c 4.9,-0.7 8.1,-2.7 8.5,-7.4 0.2,-3.7 -0.3,-7.4 -1.6,-10.9 -1.9,-5.1 -5.6,-15.1 -15,-15.6 -3.4,-0.2 -6.9,2.4 -8.4,6"
   id="path984"
   inkscape:connector-curvature="0"
   style="fill:#f0f0f0;stroke:#020202;stroke-width:6;stroke-linecap:round;stroke-linejoin:round" />
	<path
   class="st1"
   d="m 322,376.1 c -1.3,-6.8 -3.2,-14.4 -3.2,-14.4"
   id="path986"
   inkscape:connector-curvature="0"
   style="fill:none;stroke:#020202;stroke-width:6;stroke-linecap:round;stroke-linejoin:round" />
	<path
   class="st1"
   d="m 330.9,405.5 c -2.6,-3.7 -4.6,-7.7 -6.1,-12"
   id="path988"
   inkscape:connector-curvature="0"
   style="fill:none;stroke:#020202;stroke-width:6;stroke-linecap:round;stroke-linejoin:round" />
	<circle
   class="st4"
   cx="426"
   cy="396.79999"
   r="3.3"
   id="circle990"
   style="stroke:#020202;stroke-linecap:round;stroke-linejoin:round" />
	<circle
   class="st4"
   cx="418.29999"
   cy="388"
   r="3"
   id="circle992"
   style="stroke:#020202;stroke-linecap:round;stroke-linejoin:round" />
	<circle
   class="st4"
   cx="408.89999"
   cy="383.39999"
   r="3.0999999"
   id="circle994"
   style="stroke:#020202;stroke-linecap:round;stroke-linejoin:round" />
	<circle
   class="st4"
   cx="409.70001"
   cy="395.89999"
   r="2.4000001"
   id="circle996"
   style="stroke:#020202;stroke-linecap:round;stroke-linejoin:round" />
	<path
   class="st3"
   d="m 365.6,312.5 c -1.9,3.5 -2.7,7.5 -2.5,11.5 0,10.4 3.8,14 10.3,15.9 2.9,0.6 5.8,0.8 8.8,0.5 0,0 0.5,-7.4 -6.1,-17.7 -6.6,-10.3 -10.5,-10.2 -10.5,-10.2 z"
   id="path998"
   inkscape:connector-curvature="0"
   style="stroke:#020202;stroke-width:6;stroke-linecap:round;stroke-linejoin:round" />
	<path
   class="st1"
   d="m 467.7,397.9 c 0.4,-0.6 0.7,-1.3 0.8,-2.1 1.1,-4.4 -4.9,-20.8 -8,-28"
   id="path1000"
   inkscape:connector-curvature="0"
   style="fill:none;stroke:#020202;stroke-width:6;stroke-linecap:round;stroke-linejoin:round" />
	<path
   class="st1"
   d="m 241.1,387.8 c 8.7,-7.3 14.7,-17.3 17,-28.4"
   id="path1002"
   inkscape:connector-curvature="0"
   style="fill:none;stroke:#020202;stroke-width:6;stroke-linecap:round;stroke-linejoin:round" />
	<path
   class="st1"
   d="m 313.8,409.8 c -5.9,-0.4 -31.1,-10.1 -48.3,-16.3 -10.6,-3.6 -21.6,-5.8 -32.8,-6.5"
   id="path1004"
   inkscape:connector-curvature="0"
   style="fill:none;stroke:#020202;stroke-width:6;stroke-linecap:round;stroke-linejoin:round" />
	<path
   class="st1"
   d="m 114.5,23.3 c 2.4,0.1 4.7,-0.9 6.2,-2.7 C 123,18.1 122.9,9.5 118.5,3"
   id="path1006"
   inkscape:connector-curvature="0"
   style="fill:none;stroke:#020202;stroke-width:6;stroke-linecap:round;stroke-linejoin:round" />
	<path
   class="st1"
   d="m 130,29.1 c 2.4,0.1 4.7,-0.9 6.2,-2.7 2.3,-2.5 2.2,-11.1 -2.2,-17.6"
   id="path1008"
   inkscape:connector-curvature="0"
   style="fill:none;stroke:#020202;stroke-width:6;stroke-linecap:round;stroke-linejoin:round" />
	<path
   class="st1"
   d="m 138.3,43.7 c 2.4,0.1 4.7,-0.9 6.2,-2.7 2.2,-2.5 2.2,-11.1 -2.2,-17.6"
   id="path1010"
   inkscape:connector-curvature="0"
   style="fill:none;stroke:#020202;stroke-width:6;stroke-linecap:round;stroke-linejoin:round" />
</g>
<g
   id="Layer_4"
   transform="matrix(-1,0,0,1,492.94031,0)">
	<ellipse
   class="st5"
   cx="373.10001"
   cy="318.20001"
   rx="4.5999999"
   ry="3.2"
   id="ellipse1013"
   style="fill:#f0f0f0" />
	<ellipse
   class="st5"
   cx="407.70001"
   cy="307.39999"
   rx="4.5999999"
   ry="3.2"
   id="ellipse1015"
   style="fill:#f0f0f0" />
	
		<ellipse
   transform="matrix(0.9801,-0.1985,0.1985,0.9801,-62.8345,94.0376)"
   class="st5"
   cx="437.60001"
   cy="360.39999"
   rx="4.5999999"
   ry="3.2"
   id="ellipse1017"
   style="fill:#f0f0f0" />
</g>
</svg>