<?xml version="1.0" encoding="utf-8"?>
<!-- Generator: Adobe Illustrator 22.1.0, SVG Export Plug-In . SVG Version: 6.00 Build 0)  -->
<svg version="1.1" xmlns="http://www.w3.org/2000/svg" xmlns:xlink="http://www.w3.org/1999/xlink" x="0px" y="0px"
	 viewBox="0 0 384 570.3" style="enable-background:new 0 0 384 570.3;" xml:space="preserve">
<style type="text/css">
	.st0{fill:url(#SVGID_1_);}
	.st1{fill:#484848;}
</style>
<g id="Layer_2">
	
		<radialGradient id="SVGID_1_" cx="192" cy="519" r="124.0645" gradientTransform="matrix(1.105 0 0 0.4044 -20.1575 309.1374)" gradientUnits="userSpaceOnUse">
		<stop  offset="0.1308" style="stop-color:#000000;stop-opacity:0.7"/>
		<stop  offset="0.5974" style="stop-color:#231F20;stop-opacity:0.4"/>
		<stop  offset="1" style="stop-color:#000000;stop-opacity:0"/>
	</radialGradient>
	<ellipse class="st0" cx="192" cy="519" rx="140.3" ry="51.3"/>
</g>
<g id="Layer_1">
	<path class="st1" d="M172.3,501.7C27,291,0,269.4,0,192C0,86,86,0,192,0s192,86,192,192c0,77.4-27,99-172.3,309.7
		C202.2,515.4,181.8,515.4,172.3,501.7L172.3,501.7z M192,272c44.2,0,80-35.8,80-80s-35.8-80-80-80s-80,35.8-80,80
		S147.8,272,192,272z"/>
</g>
</svg>
