<?xml version="1.0" encoding="UTF-8" standalone="no"?>
<svg
   xmlns:dc="http://purl.org/dc/elements/1.1/"
   xmlns:cc="http://creativecommons.org/ns#"
   xmlns:rdf="http://www.w3.org/1999/02/22-rdf-syntax-ns#"
   xmlns:svg="http://www.w3.org/2000/svg"
   xmlns="http://www.w3.org/2000/svg"
   xmlns:sodipodi="http://sodipodi.sourceforge.net/DTD/sodipodi-0.dtd"
   xmlns:inkscape="http://www.inkscape.org/namespaces/inkscape"
   viewBox="0 0 457.79297 249.64544"
   version="1.1"
   id="svg254"
   sodipodi:docname="title-outlines-m4-redline.svg"
   width="457.79297"
   height="249.64545"
   inkscape:version="0.92.4 (33fec40, 2019-01-16)">
  <metadata
     id="metadata258">
    <rdf:RDF>
      <cc:Work
         rdf:about="">
        <dc:format>image/svg+xml</dc:format>
        <dc:type
           rdf:resource="http://purl.org/dc/dcmitype/StillImage" />
        <dc:title>title-outlines-m</dc:title>
      </cc:Work>
    </rdf:RDF>
  </metadata>
  <sodipodi:namedview
     pagecolor="#ffffff"
     bordercolor="#666666"
     borderopacity="1"
     objecttolerance="10"
     gridtolerance="10"
     guidetolerance="10"
     inkscape:pageopacity="0"
     inkscape:pageshadow="2"
     inkscape:window-width="1366"
     inkscape:window-height="713"
     id="namedview256"
     showgrid="false"
     fit-margin-top="0"
     fit-margin-left="0"
     fit-margin-right="0"
     fit-margin-bottom="0"
     inkscape:zoom="0.93365795"
     inkscape:cx="329.4413"
     inkscape:cy="96.859995"
     inkscape:window-x="0"
     inkscape:window-y="0"
     inkscape:window-maximized="1"
     inkscape:current-layer="layer4" />
  <defs
     id="defs156">
    <style
       id="style154">.cls-1{fill:#821517;}.cls-2{fill:#fff;}</style>
  </defs>
  <title
     id="title158">title-outlines-m</title>
  <g
     inkscape:groupmode="layer"
     id="layer2"
     inkscape:label="Layer 2"
     style="display:none"
     sodipodi:insensitive="true">
    <rect
       style="fill:#666666;stroke-width:1.48434734"
       id="rect310"
       width="493.75684"
       height="373.01074"
       x="-12.852673"
       y="-9.7054157" />
  </g>
  <g
     inkscape:groupmode="layer"
     id="layer4"
     inkscape:label="Layer 4"
     style="display:inline">
    <line
       style="fill:#821517;stroke:#de2a29;stroke-width:4.57973528px;stroke-miterlimit:10;fill-opacity:1"
       id="line4343"
       y2="147.89511"
       x2="0.59678584"
       y1="147.89511"
       x1="457.5032"
       class="cls-3" />
  </g>
  <g
     inkscape:groupmode="layer"
     id="layer1"
     inkscape:label="Layer 1"
     style="display:inline"
     transform="translate(0.2729806,15.530316)">
    <path
       class="cls-2"
       d="m 105.46703,168.88181 h -8.36357 v -2.27248 h 19.25322 v 2.27248 h -8.36357 v 22.49353 h -2.52608 z"
       id="path207"
       inkscape:connector-curvature="0"
       style="fill:#ffffff;stroke-width:1.33455896" />
    <path
       class="cls-2"
       d="m 124.23597,173.57647 a 8.7562235,9.1035529 0 0 1 4.17524,-0.95254 v 2.44939 h -0.58898 a 5.7065971,5.9329582 0 0 0 -4.42392,1.80982 6.9107415,7.1848669 0 0 0 -1.5968,5.04846 v 9.52539 h -2.40829 v -18.68338 h 2.30358 v 3.63326 a 5.9552791,6.1915046 0 0 1 2.53917,-2.8304 z"
       id="path209"
       inkscape:connector-curvature="0"
       style="fill:#ffffff;stroke-width:1.33455896" />
    <path
       class="cls-2"
       d="m 144.36612,174.44736 a 6.8060333,7.0760052 0 0 1 1.87166,5.44308 v 11.52573 h -2.31667 v -2.89844 a 5.4579151,5.6744119 0 0 1 -2.3952,2.25888 8.4028333,8.7361449 0 0 1 -3.7564,0.81646 7.3295742,7.6203133 0 0 1 -4.81658,-1.52407 4.908197,5.1028884 0 0 1 -0.13089,-7.74278 8.0887088,8.4095601 0 0 1 5.23541,-1.45602 h 5.75896 v -1.12944 a 4.607161,4.7899112 0 0 0 -1.30886,-3.66047 5.3401184,5.5519426 0 0 0 -3.78258,-1.26552 9.8294831,10.219384 0 0 0 -3.27213,0.58513 8.219594,8.5456371 0 0 0 -2.68315,1.61932 l -1.08635,-1.87786 a 9.5677122,9.9472304 0 0 1 3.25904,-1.86426 12.78749,13.294725 0 0 1 4.01818,-0.65317 7.5782563,7.8788597 0 0 1 5.40556,1.82343 z m -2.72241,14.15201 a 5.5102692,5.7288427 0 0 0 2.1727,-2.81679 v -3.06173 h -5.62807 c -3.06272,0 -4.59407,1.10222 -4.59407,3.32027 a 2.9580067,3.0753407 0 0 0 1.19105,2.57186 5.4448266,5.6608042 0 0 0 3.40302,0.91172 6.3610234,6.6133434 0 0 0 3.45537,-0.92533 z"
       id="path211"
       inkscape:connector-curvature="0"
       style="fill:#ffffff;stroke-width:1.33455896" />
    <path
       class="cls-2"
       d="m 152.76896,168.17421 a 1.6884198,1.7553936 0 0 1 -0.51046,-1.27912 1.6229772,1.6873551 0 0 1 0.51046,-1.2383 1.7015083,1.7690013 0 0 1 1.30885,-0.5307 1.8062165,1.8778629 0 0 1 1.30885,0.51709 1.6098887,1.6737474 0 0 1 0.49737,1.22469 1.7276853,1.7962167 0 0 1 -1.76696,1.83704 1.7015083,1.7690013 0 0 1 -1.34811,-0.5307 z m 0,4.5994 h 2.43446 v 18.60173 h -2.40829 z"
       id="path213"
       inkscape:connector-curvature="0"
       style="fill:#ffffff;stroke-width:1.33455896" />
    <path
       class="cls-2"
       d="m 176.43301,174.66509 a 7.6044333,7.9060751 0 0 1 2.00254,5.91935 v 10.7909 h -2.42137 v -10.54597 a 5.9552791,6.1915046 0 0 0 -1.40047,-4.4225 5.2354102,5.443081 0 0 0 -3.92656,-1.51045 6.1123415,6.354797 0 0 0 -4.58099,1.78261 6.5442628,6.8038512 0 0 0 -1.67533,4.93959 v 9.75672 h -2.42137 v -18.60173 h 2.31666 v 3.42915 a 6.7405907,7.0079667 0 0 1 2.73551,-2.6399 8.7562235,9.1035529 0 0 1 4.07053,-0.93893 7.2903087,7.5794902 0 0 1 5.30085,2.04116 z"
       id="path215"
       inkscape:connector-curvature="0"
       style="fill:#ffffff;stroke-width:1.33455896" />
    <path
       class="cls-2"
       d="m 227.19032,166.60933 -8.03637,24.76601 h -2.6177 l -6.97618,-21.11915 -7.01544,21.11915 h -2.61771 l -8.07563,-24.76601 h 2.61771 l 6.87147,21.29605 7.10707,-21.29605 h 2.35594 l 7.00235,21.40491 6.97619,-21.40491 z"
       id="path217"
       inkscape:connector-curvature="0"
       style="fill:#ffffff;stroke-width:1.33455896" />
    <path
       class="cls-2"
       d="m 231.11687,168.17421 a 1.6884198,1.7553936 0 0 1 -0.51045,-1.27912 1.6229772,1.6873551 0 0 1 0.51045,-1.2383 1.7015083,1.7690013 0 0 1 1.30885,-0.5307 1.7538624,1.8234321 0 0 1 1.30885,0.51709 1.5706231,1.6329243 0 0 1 0.51046,1.22469 1.7800395,1.8506475 0 0 1 -3.02345,1.36077 z m 0,4.5994 h 2.42137 v 18.60173 h -2.42137 z"
       id="path219"
       inkscape:connector-curvature="0"
       style="fill:#ffffff;stroke-width:1.33455896" />
    <path
       class="cls-2"
       d="m 249.68948,190.2459 a 4.8034889,4.9940268 0 0 1 -1.68841,0.97976 6.9369186,7.2120823 0 0 1 -2.09417,0.32658 4.7380462,4.9259883 0 0 1 -5.2354,-5.44308 V 174.8692 h -3.2067 v -2.1228 h 3.2067 v -4.08231 h 2.40828 v 4.08231 h 5.44484 v 2.1228 h -5.44484 v 11.10389 a 3.3506625,3.4835718 0 0 0 0.81149,2.53103 3.0365379,3.156987 0 0 0 2.29048,0.87089 4.2406823,4.4088956 0 0 0 1.45284,-0.25854 3.5077248,3.6468642 0 0 0 1.20415,-0.70761 z"
       id="path221"
       inkscape:connector-curvature="0"
       style="fill:#ffffff;stroke-width:1.33455896" />
    <path
       class="cls-2"
       d="m 268.56314,174.66509 a 7.6436988,7.9468982 0 0 1 1.98946,5.91935 v 10.7909 h -2.42138 v -10.54597 a 5.8898365,6.1234661 0 0 0 -1.40048,-4.4225 5.2354102,5.443081 0 0 0 -3.92655,-1.51045 6.0599872,6.3003662 0 0 0 -4.56789,1.78261 6.4657316,6.722205 0 0 0 -1.68842,4.93959 v 9.75672 h -2.42138 v -26.24925 h 2.42138 v 10.88616 a 6.5442628,6.8038512 0 0 1 2.72242,-2.51743 8.9787285,9.3348838 0 0 1 3.92655,-0.8845 7.3164857,7.6067056 0 0 1 5.36629,2.05477 z"
       id="path223"
       inkscape:connector-curvature="0"
       style="fill:#ffffff;stroke-width:1.33455896" />
    <path
       class="cls-2"
       d="m 286.54678,166.60933 h 2.51299 v 22.50714 h 13.33721 v 2.25887 h -15.8502 z"
       id="path225"
       inkscape:connector-curvature="0"
       style="fill:#ffffff;stroke-width:1.33455896" />
    <path
       class="cls-2"
       d="m 308.45697,190.34116 a 8.5991613,8.9402605 0 0 1 -3.27214,-3.38832 9.8425711,10.232992 0 0 1 0,-9.75672 8.4420989,8.776968 0 0 1 3.27214,-3.3611 9.9080146,10.301031 0 0 1 9.31903,0 8.3243022,8.6544987 0 0 1 3.25904,3.3611 10.038899,10.437108 0 0 1 0,9.75672 8.4813645,8.8177912 0 0 1 -3.25904,3.38832 9.8949259,10.287423 0 0 1 -9.31903,0 z m 8.07562,-1.91869 a 5.9683676,6.2051123 0 0 0 2.36902,-2.55825 8.2326825,8.5592448 0 0 0 0,-7.57949 5.9683676,6.2051123 0 0 0 -2.36902,-2.55824 7.0939807,7.3753747 0 0 0 -6.83221,0 6.1646955,6.4092278 0 0 0 -2.38212,2.55824 8.1279743,8.4503832 0 0 0 0,7.57949 6.1646955,6.4092278 0 0 0 2.38212,2.55825 7.1856005,7.4706286 0 0 0 6.83221,0 z"
       id="path227"
       inkscape:connector-curvature="0"
       style="fill:#ffffff;stroke-width:1.33455896" />
    <path
       class="cls-2"
       d="m 341.67564,172.77361 -7.97091,18.60173 h -2.48682 l -7.85312,-18.60173 h 2.51301 l 6.70132,15.83937 6.77986,-15.83937 z"
       id="path229"
       inkscape:connector-curvature="0"
       style="fill:#ffffff;stroke-width:1.33455896" />
    <path
       class="cls-2"
       d="m 360.14355,182.85692 h -14.97327 a 6.4002889,6.6541665 0 0 0 2.14652,4.68105 7.0939807,7.3753747 0 0 0 4.8951,1.78261 7.8531153,8.1646214 0 0 0 3.07581,-0.61235 6.6097053,6.8718897 0 0 0 2.40829,-1.82343 l 1.30885,1.63293 a 7.7484071,8.0557598 0 0 1 -2.9711,2.25888 10.798033,11.226354 0 0 1 -8.82165,-0.43545 8.4420989,8.776968 0 0 1 -3.31141,-3.38832 9.1619679,9.5253917 0 0 1 -1.19105,-4.88516 9.5546236,9.9336227 0 0 1 1.13871,-4.87156 8.2588597,8.5864602 0 0 1 3.12815,-3.3611 9.1619679,9.5253917 0 0 1 8.93946,0 8.2719481,8.6000679 0 0 1 3.08889,3.33388 9.7247744,10.110523 0 0 1 1.12561,4.89878 z m -12.98382,-6.35479 a 6.5442628,6.8038512 0 0 0 -1.98945,4.47693 h 12.69587 a 6.5442628,6.8038512 0 0 0 -1.98946,-4.47693 6.5442628,6.8038512 0 0 0 -8.71696,0 z"
       id="path231"
       inkscape:connector-curvature="0"
       style="fill:#ffffff;stroke-width:1.33455896" />
    <path
       class="cls-2"
       d="m 146.048,233.21211 a 9.3321187,9.7022918 0 0 1 -3.75641,-2.34053 l 0.98165,-2.01394 a 9.5415351,9.920015 0 0 0 3.44227,2.17723 12.473365,12.96814 0 0 0 4.42393,0.83007 8.1017973,8.4231678 0 0 0 4.80348,-1.22469 3.5993446,3.7421182 0 0 0 1.59681,-3.15699 3.088892,3.2114178 0 0 0 -0.86384,-2.38134 6.1646955,6.4092278 0 0 0 -2.13343,-1.36077 33.048527,34.359449 0 0 0 -3.50772,-1.03419 37.263032,38.741129 0 0 1 -4.27996,-1.36077 6.9892726,7.2665131 0 0 1 -2.74859,-2.00033 5.1176135,5.3206116 0 0 1 -1.1387,-3.64687 5.9945447,6.2323277 0 0 1 0.95546,-3.41553 6.5442628,6.8038512 0 0 1 2.93183,-2.46299 11.949824,12.423832 0 0 1 4.89511,-0.91172 14.148696,14.709926 0 0 1 3.992,0.58513 11.373929,11.825093 0 0 1 3.38994,1.60571 l -0.85077,2.08198 a 11.622611,12.08364 0 0 0 -3.19359,-1.53767 12.067621,12.546302 0 0 0 -3.33758,-0.51709 7.6698759,7.9741136 0 0 0 -4.71187,1.26551 3.7302298,3.8781952 0 0 0 -1.58371,3.23864 3.115069,3.2386332 0 0 0 0.86385,2.38134 5.9160135,6.1506815 0 0 0 2.18578,1.36077 c 0.86384,0.31298 2.04181,0.66678 3.52081,1.03419 a 36.647871,38.101567 0 0 1 4.24068,1.36077 6.92383,7.1984746 0 0 1 2.73551,1.97312 5.0652594,5.2661808 0 0 1 1.12561,3.59243 5.8898365,6.1234661 0 0 1 -0.96856,3.41553 6.6227939,6.8854974 0 0 1 -2.98418,2.44939 12.473365,12.96814 0 0 1 -4.93437,0.89811 15.457549,16.070697 0 0 1 -5.09144,-0.8845 z"
       id="path235"
       inkscape:connector-curvature="0"
       style="fill:#ffffff;stroke-width:1.33455896" />
    <path
       class="cls-2"
       d="m 164.96093,210.67775 a 1.6884198,1.7553936 0 0 1 -0.51046,-1.27912 1.6229772,1.6873551 0 0 1 0.51046,-1.2383 1.7015083,1.7690013 0 0 1 1.30884,-0.5307 1.7538624,1.8234321 0 0 1 1.30885,0.51709 1.5706231,1.6329243 0 0 1 0.51046,1.22469 1.7800395,1.8506475 0 0 1 -3.02345,1.36077 z m 0,4.5994 h 2.42137 v 18.60173 h -2.42137 z"
       id="path237"
       inkscape:connector-curvature="0"
       style="fill:#ffffff;stroke-width:1.33455896" />
    <path
       class="cls-2"
       d="m 188.62498,217.16863 a 7.6436988,7.9468982 0 0 1 1.98945,5.91935 v 10.7909 h -2.42137 v -10.54597 a 5.9421906,6.1778969 0 0 0 -1.38739,-4.4225 5.2354102,5.443081 0 0 0 -3.92655,-1.51045 6.0861644,6.3275816 0 0 0 -4.58099,1.78261 6.4657316,6.722205 0 0 0 -1.68842,4.93959 v 9.75672 h -2.40829 v -18.60173 h 2.30359 v 3.42915 a 6.7798563,7.0487898 0 0 1 2.74858,-2.6399 8.7431351,9.0899452 0 0 1 4.05745,-0.93893 7.3033972,7.5930979 0 0 1 5.31394,2.04116 z"
       id="path239"
       inkscape:connector-curvature="0"
       style="fill:#ffffff;stroke-width:1.33455896" />
    <path
       class="cls-2"
       d="m 199.92037,232.85831 a 8.4159219,8.7497526 0 0 1 -3.28522,-3.37471 9.3582957,9.7295072 0 0 1 -1.19105,-4.91238 9.1619679,9.5253917 0 0 1 1.19105,-4.87156 8.3897449,8.7225372 0 0 1 3.28522,-3.3611 9.6724203,10.056092 0 0 1 4.75114,-1.21109 9.1619679,9.5253917 0 0 1 4.13597,0.93893 6.8191218,7.0896129 0 0 1 2.86639,2.72154 l -1.79313,1.26552 a 5.7589513,5.9873891 0 0 0 -2.25122,-2.06837 6.6227939,6.8854974 0 0 0 -2.95801,-0.694 7.0678038,7.3481593 0 0 0 -3.49463,0.91172 6.0599872,6.3003662 0 0 0 -2.4083,2.55825 8.0363547,8.3551293 0 0 0 0,7.5931 6.0207217,6.2595431 0 0 0 2.4083,2.54464 7.0547153,7.3345516 0 0 0 3.49463,0.89811 6.7929448,7.0623975 0 0 0 2.95801,-0.66678 5.5233578,5.7424504 0 0 0 2.25122,-2.05476 l 1.79313,1.27912 a 6.7013251,6.9671436 0 0 1 -2.89256,2.72154 9.1619679,9.5253917 0 0 1 -4.1098,0.93893 9.6724203,10.056092 0 0 1 -4.75114,-1.15665 z"
       id="path241"
       inkscape:connector-curvature="0"
       style="fill:#ffffff;stroke-width:1.33455896" />
    <path
       class="cls-2"
       d="m 231.68622,225.36046 h -14.97327 a 6.4002889,6.6541665 0 0 0 2.14652,4.68105 7.0939807,7.3753747 0 0 0 4.89511,1.78261 7.8531153,8.1646214 0 0 0 3.06272,-0.61235 6.6620596,6.9263205 0 0 0 2.42138,-1.82343 l 1.30884,1.63293 a 7.7484071,8.0557598 0 0 1 -2.97109,2.25888 10.156695,10.559577 0 0 1 -3.92657,0.77563 10.051987,10.450715 0 0 1 -4.88201,-1.21108 8.4420989,8.776968 0 0 1 -3.3114,-3.38832 9.1619679,9.5253917 0 0 1 -1.19105,-4.88516 9.5546236,9.9336227 0 0 1 1.1387,-4.87156 8.1672399,8.4912063 0 0 1 3.12816,-3.3611 8.716958,9.0627298 0 0 1 4.47627,-1.21109 8.6122498,8.9538682 0 0 1 4.4501,1.21109 8.2065054,8.5320294 0 0 1 3.10199,3.33388 9.7247744,10.110523 0 0 1 1.1256,4.89878 z m -12.9838,-6.35479 a 6.5442628,6.8038512 0 0 0 -1.98947,4.47693 h 12.69588 a 6.5442628,6.8038512 0 0 0 -1.98946,-4.47693 6.5442628,6.8038512 0 0 0 -8.71695,0 z"
       id="path243"
       inkscape:connector-curvature="0"
       style="fill:#ffffff;stroke-width:1.33455896" />
    <path
       class="cls-2"
       d="m 250.57297,209.11287 v 24.76601 h -2.44756 v -22.49353 h -5.61498 v -2.27248 z"
       id="path245"
       inkscape:connector-curvature="0"
       style="fill:#ffffff;stroke-width:1.33455896" />
    <path
       class="cls-2"
       d="m 270.92562,212.14738 a 13.638243,14.179226 0 0 1 2.51299,9.14438 14.920919,15.512781 0 0 1 -1.30884,6.99436 9.4630039,9.8383688 0 0 1 -3.80876,4.34086 11.229955,11.675409 0 0 1 -5.71968,1.46963 10.680238,11.103885 0 0 1 -5.64117,-1.36077 l 0.98165,-2.05477 a 8.2588597,8.5864602 0 0 0 4.63333,1.17027 7.8531153,8.1646214 0 0 0 6.19088,-2.59907 10.536264,10.9542 0 0 0 2.25122,-7.55228 c 0,-0.61235 0,-1.29273 -0.1047,-2.01394 a 6.5442628,6.8038512 0 0 1 -2.82713,3.12977 9.1619679,9.5253917 0 0 1 -4.46318,1.11583 9.4368269,9.8111534 0 0 1 -4.16215,-0.92532 6.7798563,7.0487898 0 0 1 -2.84022,-2.59907 6.8714759,7.1440438 0 0 1 -1.02089,-3.90541 7.1201579,7.4025901 0 0 1 1.04707,-4.00067 6.8714759,7.1440438 0 0 1 2.91874,-2.72154 9.3452072,9.7158995 0 0 1 4.16215,-0.93893 8.7693121,9.1171606 0 0 1 7.19869,3.30667 z m -3.79566,8.92666 a 5.3924725,5.6063734 0 0 0 2.1596,-1.94591 4.7249578,4.9123806 0 0 0 0.78531,-2.72154 4.6464266,4.8307343 0 0 0 -0.73296,-2.61267 5.2354102,5.443081 0 0 0 -2.1596,-1.94591 7.4604596,7.7563904 0 0 0 -3.40302,-0.74842 6.1385184,6.3820124 0 0 0 -4.20141,1.46963 4.7642233,4.9532037 0 0 0 -1.62298,3.90541 4.6987806,4.8851652 0 0 0 1.67533,3.85098 6.4002889,6.6541665 0 0 0 4.37156,1.45603 7.0154498,7.2937285 0 0 0 3.12817,-0.63957 z"
       id="path247"
       inkscape:connector-curvature="0"
       style="fill:#ffffff;stroke-width:1.33455896" />
    <path
       class="cls-2"
       d="m 294.07923,223.23766 a 5.5233578,5.7424504 0 0 1 1.21723,3.74212 6.0338103,6.2731508 0 0 1 -1.12561,3.76933 7.0023612,7.2801208 0 0 1 -3.21979,2.4766 13.088526,13.607702 0 0 1 -4.92128,0.8709 10.928918,11.362431 0 0 1 -6.7275,-1.91869 5.9160135,6.1506815 0 0 1 -2.46064,-5.19814 5.6673316,5.8921351 0 0 1 1.17797,-3.76933 7.1201579,7.4025901 0 0 1 3.4161,-2.31331 6.0076332,6.2459354 0 0 1 -2.78786,-2.13641 5.7851283,6.0146045 0 0 1 1.30886,-8.08298 9.8425711,10.232992 0 0 1 6.07307,-1.769 11.661876,12.124463 0 0 1 4.41084,0.78925 6.6882365,6.9535359 0 0 1 2.94492,2.28609 5.4448266,5.6608042 0 0 1 1.04708,3.46997 5.2354102,5.443081 0 0 1 -0.98164,3.30667 6.1254299,6.3684047 0 0 1 -2.82712,2.13641 7.0939807,7.3753747 0 0 1 3.45537,2.34052 z m -3.0889,7.34816 a 4.3192135,4.4905418 0 0 0 0,-7.26651 8.4028333,8.7361449 0 0 0 -4.96055,-1.36077 8.3112137,8.640891 0 0 0 -4.9082,1.36077 4.3453904,4.5177572 0 0 0 0,7.29373 10.182873,10.586792 0 0 0 9.89494,0 z m -9.27976,-11.81149 a 7.146335,7.4298055 0 0 0 4.31921,1.19748 7.2248662,7.5114517 0 0 0 4.34539,-1.19748 3.8480265,4.0006645 0 0 0 0,-6.50448 8.5468071,8.8858297 0 0 0 -8.61225,0 3.9265577,4.0823107 0 0 0 0,6.50448 z"
       id="path249"
       inkscape:connector-curvature="0"
       style="fill:#ffffff;stroke-width:1.33455896" />
    <path
       class="cls-2"
       d="m 314.95542,231.62001 v 2.25887 h -16.70095 v -1.85064 l 9.89492,-10.08331 a 12.905286,13.417195 0 0 0 2.52609,-3.25224 6.0861644,6.3275816 0 0 0 0.66751,-2.8168 3.9265577,4.0823107 0 0 0 -1.45283,-3.41553 6.3872005,6.6405588 0 0 0 -4.13598,-1.22469 8.1672399,8.4912063 0 0 0 -6.54425,2.72154 l -1.62298,-1.51046 a 9.0572597,9.4165301 0 0 1 3.56007,-2.62628 12.774401,13.281118 0 0 1 4.88203,-0.91172 8.9263744,9.280453 0 0 1 5.77203,1.78261 5.7327741,5.9601736 0 0 1 2.12035,4.89877 8.1279743,8.4503832 0 0 1 -0.81148,3.67408 14.816211,15.403919 0 0 1 -3.10199,4.08231 l -8.10179,8.28709 z"
       id="path251"
       inkscape:connector-curvature="0"
       style="fill:#ffffff;stroke-width:1.33455896" />
  </g>
  <g
     inkscape:groupmode="layer"
     id="layer3"
     inkscape:label="Layer 3"
     transform="translate(0,3.2226563e-6)" />
  <g
     id="Layer_3"
     data-name="Layer 3"
     transform="translate(0.2729806,15.530316)">
    <polygon
       class="cls-1"
       points="129.56,35.62 111.31,35.62 112.18,1.37 "
       id="polygon160"
       transform="matrix(1.6996819,0,0,1.4156936,-168.43952,-15.530313)"
       style="fill:#821517" />
    <ellipse
       class="cls-1"
       cx="280.80344"
       cy="11.127197"
       rx="26.769991"
       ry="24.774637"
       id="ellipse162"
       style="fill:#821517;stroke-width:1.55120242" />
    <ellipse
       class="cls-1"
       cx="156.27"
       cy="78.190002"
       rx="15.75"
       ry="17.5"
       id="ellipse164"
       style="fill:#821517" />
    <path
       class="cls-1"
       d="M 31.67,78.17 A 16.63,16.63 0 0 0 15,61.54 c -9.18,0 -5.56,7.45 -5.56,16.63 0,9.18 -3.58,16.62 5.56,16.62 A 16.62,16.62 0 0 0 31.67,78.17 Z"
       id="path166"
       inkscape:connector-curvature="0"
       style="fill:#821517" />
  </g>
  <g
     id="Layer_1"
     data-name="Layer 1"
     transform="translate(0.2729806,15.530316)">
    <path
       class="cls-2"
       d="M 55.918505,18.361392 53.640931,36.128347 H -0.2729806 V 34.712653 H 1.7496409 A 8.3624353,6.9652125 0 0 0 5.9988458,33.919865 4.0962336,3.4118216 0 0 0 7.8005087,32.136091 18.696501,15.57263 0 0 0 8.2934165,27.435988 V -5.8186547 A 20.243212,16.860911 0 0 0 7.8005087,-10.674484 4.521154,3.765745 0 0 0 5.794884,-12.373316 8.0734893,6.7245446 0 0 0 1.7496409,-13.109477 H -0.2729806 V -14.52517 H 32.122958 v 1.415693 H 29.48845 a 8.4984098,7.078468 0 0 0 -4.266201,0.792789 4.3851795,3.6524895 0 0 0 -1.835657,1.783774 18.696501,15.57263 0 0 0 -0.492908,4.7142593 V 26.430845 a 19.529346,16.266319 0 0 0 0.543898,4.940771 3.5693321,2.9729566 0 0 0 2.107607,1.585577 21.05906,17.540444 0 0 0 5.421985,0.339766 h 5.099046 a 17.251772,14.36929 0 0 0 8.056492,-1.415693 15.178159,12.642144 0 0 0 5.591953,-4.487749 44.038759,36.680621 0 0 0 4.504157,-9.032125 z"
       id="path169"
       inkscape:connector-curvature="0"
       style="fill:#ffffff;stroke-width:1.55120242" />
    <path
       class="cls-2"
       d="m 92.852594,34.755124 v 1.415693 H 61.017551 v -1.415693 h 2.005625 a 8.3964288,6.9935264 0 0 0 4.266201,-0.792789 3.9942526,3.32688 0 0 0 1.784666,-1.783774 18.06762,15.048823 0 0 0 0.492907,-4.700102 V -5.8186547 a 19.61433,16.337104 0 0 0 -0.492907,-4.8558293 4.3851795,3.6524895 0 0 0 -1.988628,-1.698832 8.090486,6.7387015 0 0 0 -4.062239,-0.736161 h -2.005625 v -1.415693 h 31.767055 v 1.415693 h -2.022621 a 8.3624353,6.9652125 0 0 0 -4.249205,0.792789 4.2152112,3.5109201 0 0 0 -1.699682,1.783774 18.203593,15.162078 0 0 0 -0.492907,4.7142593 V 27.478459 a 19.240399,16.025652 0 0 0 0.509904,4.841672 4.5551476,3.7940588 0 0 0 2.022622,1.698832 7.8865242,6.5688183 0 0 0 4.045243,0.736161 z"
       id="path171"
       inkscape:connector-curvature="0"
       style="fill:#ffffff;stroke-width:1.55120242" />
    <path
       class="cls-2"
       d="m 160.29597,-14.482699 v 1.415693 a 9.8581554,8.2110229 0 0 0 -5.9149,2.9588 54.644775,45.514549 0 0 0 -5.59194,8.7348292 L 127.84904,37.289215 h -1.47872 l -20.8381,-40.2340117 a 61.188551,50.964969 0 0 0 -5.09904,-8.4941613 7.2236483,6.0166978 0 0 0 -4.827102,-1.613891 v -1.415694 h 29.132552 v 1.415694 h -0.83284 a 10.300072,8.5791032 0 0 0 -5.371,0.821102 2.2095866,1.8404017 0 0 0 -1.0368,1.642205 6.2548295,5.2097524 0 0 0 0.35693,1.5855767 c 0.23795,0.6229052 1.0538,2.2509528 2.41354,4.9124568 l 12.96857,25.1993465 11.91478,-22.4812148 c 1.44473,-2.7039748 2.31157,-4.5302195 2.65151,-5.4504203 a 10.36806,8.6357309 0 0 0 0.4929,-2.3500514 4.1302271,3.4401354 0 0 0 -0.71386,-1.9819715 4.5721445,3.8082158 0 0 0 -2.10761,-1.302438 14.175347,11.806885 0 0 0 -5.09905,-0.637062 v -1.415693 z"
       id="path173"
       inkscape:connector-curvature="0"
       style="fill:#ffffff;stroke-width:1.55120242" />
    <path
       class="cls-2"
       d="M 186.25012,-11.580528 V 9.0319711 h 1.20677 q 5.79592,0 8.37944,-3.0295843 a 22.248836,18.531429 0 0 0 3.39936,-8.9188696 h 1.69968 V 23.585301 h -1.69968 a 23.659573,19.706455 0 0 0 -2.26057,-7.078468 9.6711903,8.0552966 0 0 0 -4.09625,-3.723274 15.178159,12.642144 0 0 0 -6.62875,-0.948515 v 14.256035 a 24.407433,20.32936 0 0 0 0.42492,5.110654 3.6883099,3.0720551 0 0 0 1.59771,1.528949 7.4276102,6.186581 0 0 0 3.75629,0.594591 h 3.63731 a 21.80692,18.163349 0 0 0 13.59746,-3.284409 21.942894,18.276604 0 0 0 7.35961,-9.994797 h 1.69969 l -2.6345,16.08228 h -52.52017 v -1.415694 h 2.00562 a 8.3964288,6.9935264 0 0 0 4.2662,-0.792788 3.9942526,3.32688 0 0 0 1.69969,-1.783774 18.06762,15.048823 0 0 0 0.4929,-4.700103 V -5.8186547 a 31.546097,26.275273 0 0 0 -0.22095,-4.2470803 4.3001953,3.5817048 0 0 0 -1.69969,-2.024442 7.7505497,6.4555628 0 0 0 -4.67413,-1.047614 h -2.00562 v -1.415693 h 50.95646 V 0.48118182 h -1.69967 a 21.721935,18.092564 0 0 0 -3.65432,-7.87125642 13.478478,11.22645 0 0 0 -6.64576,-3.5109204 35.693321,29.729566 0 0 0 -9.41623,-0.679533 z"
       id="path175"
       inkscape:connector-curvature="0"
       style="fill:#ffffff;stroke-width:1.55120242" />
    <path
       class="cls-2"
       d="m 280.85441,-15.190546 q 14.53228,-0.438865 23.59159,7.0784677 a 30.441304,25.355072 0 0 1 9.0763,18.7720973 32.293957,26.898178 0 0 1 -6.79872,16.988323 Q 297.78325,37.36 281.39831,37.36 q -16.38493,0 -25.35926,-9.258636 a 32.140986,26.770766 0 0 1 -7.08766,-17.356404 30.35632,25.284288 0 0 1 9.22927,-18.8711952 29.353507,24.449028 0 0 1 22.67375,-7.0643108 z m 0.5439,2.378365 c -5.55796,0 -9.79016,2.378365 -12.67963,7.0784679 -2.36256,3.8931574 -3.55234,9.4568333 -3.55234,16.7334981 q 0,12.953597 5.47299,19.140178 a 12.458669,10.377034 0 0 0 10.657,4.332022 12.764611,10.631859 0 0 0 7.71656,-1.868715 18.305574,15.24702 0 0 0 6.13585,-7.630589 50.990458,42.470808 0 0 0 2.1246,-13.604815 q 0,-10.051425 -2.22658,-15.0205095 a 17.404743,14.496702 0 0 0 -5.72792,-7.0784675 13.427488,11.183979 0 0 0 -7.92053,-2.08107 z"
       id="path177"
       inkscape:connector-curvature="0"
       style="fill:#ffffff;stroke-width:1.55120242" />
    <path
       class="cls-2"
       d="m 355.06253,21.716586 h -21.55197 l -2.54951,4.926613 a 13.342503,11.113195 0 0 0 -1.25777,4.077198 4.0622399,3.3835077 0 0 0 2.0566,3.128683 16.996819,14.156936 0 0 0 5.96589,0.906044 v 1.415693 h -20.20921 v -1.415693 a 9.0763016,7.5598038 0 0 0 5.371,-2.26511 35.778305,29.80035 0 0 0 5.20101,-7.630588 l 21.73894,-40.389739 h 0.84984 l 21.9089,41.508136 c 2.09061,3.935629 3.82429,6.413092 5.09905,7.432392 a 7.070677,5.8892854 0 0 0 4.30019,1.415693 v 1.415694 h -29.4045 v -1.415694 h 1.20678 a 9.3142571,7.7580009 0 0 0 4.98006,-0.821102 2.3965516,1.996128 0 0 0 0.98582,-1.727146 5.2350205,4.3603363 0 0 0 -0.27195,-1.415694 c 0,-0.226511 -0.50991,-1.160868 -1.34275,-2.831387 z m -1.51272,-2.760603 -9.0593,-17.4271879 -9.31426,17.4271879 z"
       id="path179"
       inkscape:connector-curvature="0"
       style="fill:#ffffff;stroke-width:1.55120242" />
    <path
       class="cls-2"
       d="m 421.35013,4.8839889 21.365,22.2830171 a 34.384566,28.639481 0 0 0 7.80154,6.384778 9.4672285,7.8854133 0 0 0 5.01406,1.20334 v 1.415693 h -31.66507 v -1.415693 a 8.3624353,6.9652125 0 0 0 3.87527,-0.792789 2.0226215,1.6846754 0 0 0 0.86683,-1.415693 c 0,-1.047613 -1.35974,-3.015428 -4.11322,-5.903443 l -13.9374,-14.5958 -2.24358,1.571419 v 13.81717 a 18.849473,15.700042 0 0 0 0.5439,4.926614 4.5721445,3.8082158 0 0 0 2.05662,1.656361 10.826974,9.0179682 0 0 0 4.87808,0.69369 v 1.415694 h -30.59427 v -1.415694 h 2.00563 a 8.3964288,6.9935264 0 0 0 4.26619,-0.792788 3.9942526,3.32688 0 0 0 1.78468,-1.783774 18.06762,15.048823 0 0 0 0.4929,-4.700103 V -5.8186547 a 19.61433,16.337104 0 0 0 -0.4929,-4.8558293 4.3851795,3.6524895 0 0 0 -1.98863,-1.698832 8.090486,6.7387015 0 0 0 -4.06224,-0.736161 h -2.05662 v -1.415693 h 30.25434 v 1.415693 a 9.875152,8.2251798 0 0 0 -4.70812,0.750318 4.2662017,3.5533909 0 0 0 -1.83566,1.75546 17.744679,14.779841 0 0 0 -0.5439,4.7850443 V 9.952172 l 22.53779,-15.2187062 c 3.1444,-2.1093834 4.70812,-3.8082158 4.70812,-5.0681828 a 3.0254339,2.5199346 0 0 0 -1.92065,-2.250953 16.078992,13.392461 0 0 0 -4.89508,-0.523807 v -1.415693 h 23.71057 v 1.415693 a 13.3595,11.127352 0 0 0 -4.99707,0.962672 70.536801,58.751284 0 0 0 -8.36244,5.1106538 z"
       id="path181"
       inkscape:connector-curvature="0"
       style="fill:#ffffff;stroke-width:1.55120242" />
    <path
       class="cls-2"
       d="m 0,95.86 v -1 H 1.19 A 4.69,4.69 0 0 0 3.57,94.37 2.93,2.93 0 0 0 4.8,93.06 12.47,12.47 0 0 0 5,89.74 V 66.22 A 11.91,11.91 0 0 0 4.71,62.79 2.66,2.66 0 0 0 3.53,61.59 4.75,4.75 0 0 0 1.15,61.08 H 0 v -1 h 16 a 25.59,25.59 0 0 1 10.31,1.74 15.24,15.24 0 0 1 7.24,6.46 A 20.52,20.52 0 0 1 34.8,85 15.85,15.85 0 0 1 31.67,90.25 15.37,15.37 0 0 1 27.22,93.57 23.57,23.57 0 0 1 21.07,95.51 29,29 0 0 1 16,95.83 Z M 13.63,62.13 V 90 a 9.77,9.77 0 0 0 0.21,2.71 1.52,1.52 0 0 0 0.71,0.77 4.38,4.38 0 0 0 2.06,0.39 8,8 0 0 0 6.72,-3 q 3.17,-4.07 3.17,-12.6 0,-6.89 -2.16,-11 a 9.29,9.29 0 0 0 -4.41,-4.38 17.32,17.32 0 0 0 -6.3,-0.76 z"
       id="path183"
       inkscape:connector-curvature="0"
       style="fill:#ffffff" />
    <path
       class="cls-2"
       d="m 59.14,59.6 q 8.55,-0.32 13.88,5 a 18,18 0 0 1 5.34,13.27 19,19 0 0 1 -4,12 q -5.26,6.86 -14.9,6.85 -9.64,-0.01 -14.9,-6.59 a 18.91,18.91 0 0 1 -4.17,-12.26 17.82,17.82 0 0 1 5.42,-13.27 17.28,17.28 0 0 1 13.33,-5 z m 0.32,1.69 q -4.91,0 -7.46,5 -2.09,4.11 -2.09,11.81 0,9.15 3.22,13.53 a 7.33,7.33 0 0 0 6.28,3.06 7.5,7.5 0 0 0 4.53,-1.32 10.86,10.86 0 0 0 3.61,-5.37 30.06,30.06 0 0 0 1.29,-9.67 c 0,-4.73 -0.43,-8.26 -1.31,-10.61 a 10.29,10.29 0 0 0 -3.37,-5 7.89,7.89 0 0 0 -4.7,-1.43 z"
       id="path185"
       inkscape:connector-curvature="0"
       style="fill:#ffffff" />
    <path
       class="cls-2"
       d="m 117.54,59.28 v 12.61 h -1 a 16.09,16.09 0 0 0 -5.3,-7.86 12.51,12.51 0 0 0 -7.73,-2.69 9.94,9.94 0 0 0 -6.67,2.26 12.21,12.21 0 0 0 -3.77,6.28 31.07,31.07 0 0 0 -1.07,8.28 30.19,30.19 0 0 0 1.22,9 10.31,10.31 0 0 0 3.91,5.7 11.24,11.24 0 0 0 6.42,1.82 13.57,13.57 0 0 0 2.65,-0.28 18.52,18.52 0 0 0 2.79,-0.81 v -7.41 a 8,8 0 0 0 -0.29,-2.73 2.72,2.72 0 0 0 -1.21,-1.12 4.5,4.5 0 0 0 -2.2,-0.5 h -0.92 v -1 h 17.38 v 1 a 7.73,7.73 0 0 0 -2.76,0.54 2.66,2.66 0 0 0 -1.2,1.36 7.35,7.35 0 0 0 -0.24,2.45 v 7.43 a 35.15,35.15 0 0 1 -7.13,2.31 37.19,37.19 0 0 1 -7.68,0.78 22.36,22.36 0 0 1 -8.45,-1.38 21.34,21.34 0 0 1 -5.94,-3.64 17.42,17.42 0 0 1 -4,-5.08 17.74,17.74 0 0 1 -1.84,-8.15 18.36,18.36 0 0 1 5.67,-13.63 19.5,19.5 0 0 1 14.26,-5.56 25,25 0 0 1 4.8,0.42 24.85,24.85 0 0 1 3.76,1.2 15.51,15.51 0 0 0 3.07,1 2.07,2.07 0 0 0 1.37,-0.54 4.79,4.79 0 0 0 1.16,-2 z"
       id="path187"
       inkscape:connector-curvature="0"
       style="fill:#ffffff" />
    <path
       class="cls-2"
       d="m 156.65,59.6 q 8.53,-0.32 13.88,5 a 18,18 0 0 1 5.34,13.27 19.11,19.11 0 0 1 -4,12 q -5.28,6.86 -14.9,6.85 -9.62,-0.01 -14.92,-6.54 a 18.91,18.91 0 0 1 -4.17,-12.26 17.82,17.82 0 0 1 5.42,-13.27 17.25,17.25 0 0 1 13.35,-5.05 z m 0.31,1.69 q -4.91,0 -7.46,5 -2.08,4.11 -2.08,11.81 0,9.15 3.22,13.53 a 7.32,7.32 0 0 0 6.27,3.06 7.55,7.55 0 0 0 4.54,-1.32 10.92,10.92 0 0 0 3.61,-5.37 30.06,30.06 0 0 0 1.29,-9.67 c 0,-4.73 -0.44,-8.26 -1.32,-10.61 a 10.35,10.35 0 0 0 -3.36,-5 7.9,7.9 0 0 0 -4.67,-1.43 z"
       id="path189"
       inkscape:connector-curvature="0"
       style="fill:#ffffff" />
    <path
       class="cls-2"
       d="m 201.81,76.9 q 5.1,1.18 7.15,2.87 a 7.65,7.65 0 0 1 2.95,6.23 8.26,8.26 0 0 1 -3.24,6.68 q -4,3.18 -11.58,3.19 h -18.16 v -1 a 8.17,8.17 0 0 0 3.36,-0.46 2.73,2.73 0 0 0 1.24,-1.2 10.93,10.93 0 0 0 0.35,-3.64 V 66.38 a 11,11 0 0 0 -0.35,-3.65 2.61,2.61 0 0 0 -1.25,-1.2 8.44,8.44 0 0 0 -3.35,-0.45 v -1 h 17.14 q 6.13,0 8.7,1.1 a 9.05,9.05 0 0 1 4,3.27 8,8 0 0 1 1.48,4.62 6.59,6.59 0 0 1 -1.87,4.6 q -1.84,2.05 -6.57,3.23 z m -9.59,1.34 v 11.47 1.32 a 2.54,2.54 0 0 0 2.87,2.87 8.24,8.24 0 0 0 3.91,-0.9 6.35,6.35 0 0 0 2.73,-2.72 8.32,8.32 0 0 0 0.95,-4 8.78,8.78 0 0 0 -1.16,-4.49 6.2,6.2 0 0 0 -3.24,-2.79 17.37,17.37 0 0 0 -6.06,-0.76 z m 0,-2 a 13.46,13.46 0 0 0 5.52,-0.85 6.23,6.23 0 0 0 2.73,-2.39 7.31,7.31 0 0 0 0.95,-3.9 7.23,7.23 0 0 0 -0.94,-3.89 5.93,5.93 0 0 0 -2.67,-2.31 14.17,14.17 0 0 0 -5.59,-0.76 z"
       id="path191"
       inkscape:connector-curvature="0"
       style="fill:#ffffff" />
    <path
       class="cls-2"
       d="m 228.52,62.16 v 14.55 h 0.72 a 5.66,5.66 0 0 0 4.93,-2.13 13.16,13.16 0 0 0 2,-6.3 h 1 V 87 h -1 a 14.13,14.13 0 0 0 -1.33,-5 5.82,5.82 0 0 0 -2.36,-2.63 9,9 0 0 0 -3.91,-0.67 v 10.06 a 15,15 0 0 0 0.25,3.62 2.21,2.21 0 0 0 0.94,1.08 4.44,4.44 0 0 0 2.22,0.42 h 2.13 a 11.53,11.53 0 0 0 12.37,-9.39 h 1 l -1.61,11.37 h -30.9 v -1 h 1.19 a 4.9,4.9 0 0 0 2.5,-0.55 2.43,2.43 0 0 0 1.06,-1.27 11,11 0 0 0 0.29,-3.32 v -23.5 a 19.93,19.93 0 0 0 -0.13,-3 2.49,2.49 0 0 0 -1,-1.42 4.48,4.48 0 0 0 -2.74,-0.74 h -1.19 v -1 h 29.93 v 10.62 h -1 a 13,13 0 0 0 -2.15,-5.57 8.07,8.07 0 0 0 -3.92,-2.48 21.51,21.51 0 0 0 -5.53,-0.47 z"
       id="path193"
       inkscape:connector-curvature="0"
       style="fill:#ffffff" />
    <path
       class="cls-2"
       d="m 250.54,95.86 v -1 h 1.19 a 4.69,4.69 0 0 0 2.38,-0.49 2.93,2.93 0 0 0 1.23,-1.33 12.47,12.47 0 0 0 0.24,-3.32 v -23.5 a 11.91,11.91 0 0 0 -0.29,-3.43 2.66,2.66 0 0 0 -1.18,-1.2 4.75,4.75 0 0 0 -2.38,-0.51 h -1.19 v -1 h 16 a 25.57,25.57 0 0 1 10.3,1.74 15.24,15.24 0 0 1 7.24,6.46 20.58,20.58 0 0 1 1.27,16.72 16,16 0 0 1 -3.14,5.25 15.37,15.37 0 0 1 -4.45,3.32 23.57,23.57 0 0 1 -6.15,1.94 28.93,28.93 0 0 1 -5.06,0.32 z M 264.17,62.13 V 90 a 9.77,9.77 0 0 0 0.21,2.71 1.5,1.5 0 0 0 0.72,0.77 4.34,4.34 0 0 0 2,0.39 8,8 0 0 0 6.73,-3 Q 277,86.84 277,78.3 q 0,-6.89 -2.16,-11 a 9.29,9.29 0 0 0 -4.41,-4.38 17.32,17.32 0 0 0 -6.26,-0.79 z"
       id="path195"
       inkscape:connector-curvature="0"
       style="fill:#ffffff" />
    <path
       class="cls-2"
       d="m 308.6,94.88 v 1 h -18.69 v -1 h 1.18 a 4.94,4.94 0 0 0 2.51,-0.55 2.37,2.37 0 0 0 1,-1.27 10.63,10.63 0 0 0 0.29,-3.32 V 66.22 a 11.54,11.54 0 0 0 -0.29,-3.43 2.58,2.58 0 0 0 -1.17,-1.2 4.77,4.77 0 0 0 -2.39,-0.51 h -1.18 v -1 h 18.74 v 1 h -1.19 a 4.93,4.93 0 0 0 -2.5,0.55 2.51,2.51 0 0 0 -1.08,1.27 11,11 0 0 0 -0.29,3.32 v 23.52 a 11.41,11.41 0 0 0 0.3,3.43 2.78,2.78 0 0 0 1.19,1.2 4.75,4.75 0 0 0 2.38,0.51 z"
       id="path197"
       inkscape:connector-curvature="0"
       style="fill:#ffffff" />
    <path
       class="cls-2"
       d="m 324.55,62.16 v 14.55 h 0.72 a 5.66,5.66 0 0 0 4.93,-2.13 13.16,13.16 0 0 0 1.95,-6.3 h 1 V 87 h -1 a 13.91,13.91 0 0 0 -1.34,-5 5.76,5.76 0 0 0 -2.35,-2.63 9,9 0 0 0 -3.91,-0.67 v 10.06 a 15,15 0 0 0 0.25,3.62 2.21,2.21 0 0 0 0.94,1.08 4.42,4.42 0 0 0 2.21,0.42 h 2.14 a 11.53,11.53 0 0 0 12.37,-9.39 h 1 l -1.61,11.37 h -30.9 v -1 h 1.19 a 4.9,4.9 0 0 0 2.5,-0.55 2.43,2.43 0 0 0 1.06,-1.27 11,11 0 0 0 0.29,-3.32 v -23.5 a 19.93,19.93 0 0 0 -0.13,-3 2.53,2.53 0 0 0 -1,-1.42 4.48,4.48 0 0 0 -2.74,-0.74 h -1.19 v -1 h 29.93 v 10.62 h -1 a 13,13 0 0 0 -2.15,-5.57 8.07,8.07 0 0 0 -3.92,-2.48 21.55,21.55 0 0 0 -5.54,-0.47 z"
       id="path199"
       inkscape:connector-curvature="0"
       style="fill:#ffffff" />
    <path
       class="cls-2"
       d="m 359.31,60.1 17.63,22.18 V 66.9 c 0,-2.14 -0.3,-3.59 -0.92,-4.35 -0.84,-1 -2.26,-1.51 -4.24,-1.47 v -1 h 11.81 v 1 a 8.93,8.93 0 0 0 -3,0.75 3,3 0 0 0 -1.21,1.5 10.31,10.31 0 0 0 -0.43,3.57 V 96.67 H 378 L 353.82,66.9 v 22.73 q 0,3.09 1.41,4.17 a 5.18,5.18 0 0 0 3.23,1.08 h 0.85 v 1 h -12.69 v -1 c 2,0 3.34,-0.42 4.12,-1.21 0.78,-0.79 1.16,-2.14 1.16,-4 V 64.4 l -0.77,-1 a 6.87,6.87 0 0 0 -2,-1.87 6,6 0 0 0 -2.51,-0.5 v -1 z"
       id="path201"
       inkscape:connector-curvature="0"
       style="fill:#ffffff" />
    <path
       class="cls-2"
       d="m 420.9,59.28 v 12.4 h -1 a 13.16,13.16 0 0 0 -4.32,-7.44 11.05,11.05 0 0 0 -7.18,-2.58 10.61,10.61 0 0 0 -6.14,1.92 11.33,11.33 0 0 0 -4.09,5 22.93,22.93 0 0 0 -1.66,8.86 29.59,29.59 0 0 0 1.22,8.74 11.6,11.6 0 0 0 3.79,6 10.62,10.62 0 0 0 6.7,2 13.11,13.11 0 0 0 6.18,-1.47 21.28,21.28 0 0 0 5.92,-5.09 v 3.08 a 19.37,19.37 0 0 1 -6.32,4.56 19,19 0 0 1 -7.61,1.41 21.82,21.82 0 0 1 -10.16,-2.29 16.28,16.28 0 0 1 -6.86,-6.59 18.41,18.41 0 0 1 -2.37,-9.15 19.51,19.51 0 0 1 9.9,-16.82 19.57,19.57 0 0 1 9.67,-2.54 22,22 0 0 1 8,1.64 12.41,12.41 0 0 0 3.08,0.95 2,2 0 0 0 1.47,-0.62 3.36,3.36 0 0 0 0.8,-2 z"
       id="path203"
       inkscape:connector-curvature="0"
       style="fill:#ffffff" />
    <path
       class="cls-2"
       d="m 438.56,62.16 v 14.55 h 0.72 a 5.66,5.66 0 0 0 4.93,-2.13 13.16,13.16 0 0 0 2,-6.3 h 1 V 87 h -1 a 14.13,14.13 0 0 0 -1.33,-5 5.82,5.82 0 0 0 -2.36,-2.63 9,9 0 0 0 -3.91,-0.67 v 10.06 a 15,15 0 0 0 0.25,3.62 2.21,2.21 0 0 0 0.94,1.08 4.44,4.44 0 0 0 2.22,0.42 h 2.13 a 11.53,11.53 0 0 0 12.37,-9.39 h 1 l -1.6,11.37 h -30.99 v -1 h 1.19 a 4.9,4.9 0 0 0 2.5,-0.55 2.43,2.43 0 0 0 1.06,-1.27 11,11 0 0 0 0.29,-3.32 v -23.5 a 18.56,18.56 0 0 0 -0.13,-3 2.49,2.49 0 0 0 -1,-1.42 4.48,4.48 0 0 0 -2.74,-0.74 h -1.19 v -1 h 29.93 v 10.62 h -1 a 13,13 0 0 0 -2.15,-5.57 8,8 0 0 0 -3.92,-2.48 21.51,21.51 0 0 0 -5.53,-0.47 z"
       id="path205"
       inkscape:connector-curvature="0"
       style="fill:#ffffff" />
  </g>
</svg>
