<svg xmlns="http://www.w3.org/2000/svg" viewBox="0 0 804 86.33"><defs><style>.cls-1{fill:#821517;}.cls-2{font-size:54px;font-family:TimesNewRomanPS-BoldMT, Times New Roman;font-weight:700;}.cls-2,.cls-3{fill:#fff;}.cls-3{font-size:26px;font-family:Montserrat-Regular, Montserrat;}.cls-4{letter-spacing:-0.01em;}.cls-5{letter-spacing:-0.01em;}.cls-6{letter-spacing:-0.02em;}.cls-7{letter-spacing:0em;}.cls-8{letter-spacing:-0.01em;}.cls-9{letter-spacing:-0.01em;}.cls-10{letter-spacing:0em;}.cls-11{letter-spacing:0em;}.cls-12{fill:none;stroke:#de2a29;stroke-miterlimit:10;stroke-width:3px;}</style></defs><title>title</title><g id="Layer_3" data-name="Layer 3"><polygon class="cls-1" points="42.63 3.38 60 37.63 41.75 37.63 42.63 3.38"/><ellipse class="cls-1" cx="194.75" cy="20.83" rx="15.75" ry="17.5"/><ellipse class="cls-1" cx="467.42" cy="20.83" rx="15.75" ry="17.5"/><path class="cls-1" d="M342.81,20.81A16.62,16.62,0,0,0,326.19,4.19c-9.18,0-5.56,7.44-5.56,16.62S317,37.44,326.19,37.44A16.63,16.63,0,0,0,342.81,20.81Z"/></g><g id="Layer_1" data-name="Layer 1"><text class="cls-2" transform="translate(28.38 38.5)">LIVE OAK DOG OBEDIENCE</text><text class="cls-3" transform="translate(228.11 81.01)"><tspan class="cls-4">T</tspan><tspan class="cls-5" x="14.56" y="0">r</tspan><tspan x="24.75" y="0">ain </tspan><tspan class="cls-6" x="71.5" y="0">W</tspan><tspan class="cls-7" x="99.92" y="0">ith </tspan><tspan class="cls-8" x="141.88" y="0">L</tspan><tspan class="cls-9" x="156.99" y="0">ov</tspan><tspan x="186.6" y="0">e, Si</tspan><tspan class="cls-10" x="237.61" y="0">n</tspan><tspan class="cls-5" x="255.26" y="0">c</tspan><tspan class="cls-11" x="269.67" y="0">e 1982</tspan></text><line class="cls-12" x1="196.6" y1="73.67" y2="73.67"/><line class="cls-12" x1="804" y1="73.67" x2="607.94" y2="73.67"/></g></svg>