<svg xmlns="http://www.w3.org/2000/svg" viewBox="0 0 804 86.33"><defs><style>.cls-1{fill:#821517;}.cls-2{fill:#fff;}.cls-3{fill:none;stroke:#de2a29;stroke-miterlimit:10;stroke-width:3px;}</style></defs><title>title-outlines</title><g id="Layer_3" data-name="Layer 3"><polygon class="cls-1" points="42.63 3.38 60 37.63 41.75 37.63 42.63 3.38"/><ellipse class="cls-1" cx="194.75" cy="20.83" rx="15.75" ry="17.5"/><ellipse class="cls-1" cx="467.42" cy="20.83" rx="15.75" ry="17.5"/><path class="cls-1" d="M342.81,20.81A16.62,16.62,0,0,0,326.19,4.19c-9.18,0-5.56,7.44-5.56,16.62S317,37.44,326.19,37.44A16.63,16.63,0,0,0,342.81,20.81Z"/></g><g id="Layer_1" data-name="Layer 1"><path class="cls-2" d="M62.48,26,61.13,38.5H29.38v-1h1.19A5,5,0,0,0,33.08,37a2.46,2.46,0,0,0,1.05-1.27,11,11,0,0,0,.29-3.32V8.86a11.91,11.91,0,0,0-.29-3.43A2.67,2.67,0,0,0,33,4.23a4.79,4.79,0,0,0-2.39-.51H29.38v-1H48.45v1H46.89a5,5,0,0,0-2.5.55,2.51,2.51,0,0,0-1.08,1.27A10.63,10.63,0,0,0,43,8.86V31.64a11.7,11.7,0,0,0,.31,3.5,2.13,2.13,0,0,0,1.24,1.12,12.39,12.39,0,0,0,3.19.24h3a10.09,10.09,0,0,0,4.75-1,8.8,8.8,0,0,0,3.28-3.16A25.53,25.53,0,0,0,61.39,26Z"/><path class="cls-2" d="M84.18,37.52v1H65.48v-1h1.19a4.93,4.93,0,0,0,2.5-.55,2.43,2.43,0,0,0,1.06-1.27,11,11,0,0,0,.29-3.32V8.86a11.91,11.91,0,0,0-.29-3.43,2.76,2.76,0,0,0-1.18-1.2,4.75,4.75,0,0,0-2.38-.51H65.48v-1h18.7v1H83a5.07,5.07,0,0,0-2.51.55A2.6,2.6,0,0,0,79.4,5.54a11,11,0,0,0-.29,3.32V32.38a10.94,10.94,0,0,0,.31,3.43A2.66,2.66,0,0,0,80.6,37a4.79,4.79,0,0,0,2.39.51Z"/><path class="cls-2" d="M123.86,2.75v1a5.83,5.83,0,0,0-3.48,2.08,32.19,32.19,0,0,0-3.3,6.2L104.77,39.32h-.87L91.64,10.89a36.49,36.49,0,0,0-3-6,4.3,4.3,0,0,0-2.83-1.13v-1H103v1h-.58a6,6,0,0,0-3.17.58,1.3,1.3,0,0,0-.61,1.16,3.44,3.44,0,0,0,.22,1.12c.14.43.61,1.59,1.42,3.47l7.62,17.8L115,12c.84-1.92,1.36-3.2,1.55-3.85a6.1,6.1,0,0,0,.29-1.66,2.41,2.41,0,0,0-.42-1.4,2.64,2.64,0,0,0-1.24-.92,8.34,8.34,0,0,0-3-.45v-1Z"/><path class="cls-2" d="M139.12,4.8V19.36h.72a5.67,5.67,0,0,0,4.93-2.14,13.09,13.09,0,0,0,1.95-6.3h1V29.64h-1a14.13,14.13,0,0,0-1.33-5A5.74,5.74,0,0,0,143,22a9,9,0,0,0-3.91-.68V31.41a14.15,14.15,0,0,0,.26,3.61,2.1,2.1,0,0,0,.93,1.08,4.44,4.44,0,0,0,2.22.42h2.13a12.81,12.81,0,0,0,8-2.32A13,13,0,0,0,157,27.13h1L156.4,38.5H125.49v-1h1.19a4.9,4.9,0,0,0,2.5-.55,2.43,2.43,0,0,0,1.06-1.27,11,11,0,0,0,.29-3.32V8.86a20,20,0,0,0-.13-3,2.52,2.52,0,0,0-1-1.42,4.55,4.55,0,0,0-2.74-.74h-1.19v-1h29.93V13.32h-1a13,13,0,0,0-2.15-5.57,7.94,7.94,0,0,0-3.92-2.47,20.92,20.92,0,0,0-5.53-.48Z"/><path class="cls-2" d="M194.79,2.24q8.53-.32,13.88,5A17.91,17.91,0,0,1,214,20.49a19.07,19.07,0,0,1-4,12q-5.28,6.85-14.9,6.86T180.2,32.78A19,19,0,0,1,176,20.52a17.81,17.81,0,0,1,5.42-13.28A17.25,17.25,0,0,1,194.79,2.24Zm.31,1.69q-4.9,0-7.46,5-2.08,4.11-2.08,11.81,0,9.15,3.21,13.53a7.35,7.35,0,0,0,6.28,3.06A7.5,7.5,0,0,0,199.58,36a10.78,10.78,0,0,0,3.62-5.39A30,30,0,0,0,204.49,21q0-7.08-1.32-10.61a10.4,10.4,0,0,0-3.36-5A8,8,0,0,0,195.1,3.93Z"/><path class="cls-2" d="M238.4,28.32H225.77l-1.51,3.48a7.76,7.76,0,0,0-.73,2.88,2.37,2.37,0,0,0,1.21,2.21,10.2,10.2,0,0,0,3.51.63v1h-11.9v-1a5.3,5.3,0,0,0,3.17-1.59,21.68,21.68,0,0,0,3.06-5.39L235.36,2h.51l12.89,29.32q1.85,4.16,3,5.24a4.07,4.07,0,0,0,2.53,1v1H237v-1h.71a5.35,5.35,0,0,0,2.92-.58,1.39,1.39,0,0,0,.58-1.21,3.43,3.43,0,0,0-.15-1c0-.15-.3-.81-.79-2Zm-.9-1.95-5.33-12.31-5.48,12.31Z"/><path class="cls-2" d="M277.42,16.43,290,32.17a19.83,19.83,0,0,0,4.59,4.51,5.62,5.62,0,0,0,3,.84v1H278.92v-1A5,5,0,0,0,281.2,37a1.18,1.18,0,0,0,.52-1q0-1.1-2.43-4.16l-8.2-10.31-1.32,1.11v9.75a11,11,0,0,0,.32,3.48A2.71,2.71,0,0,0,271.3,37a6.45,6.45,0,0,0,2.88.48v1h-18v-1h1.19a4.9,4.9,0,0,0,2.5-.55,2.43,2.43,0,0,0,1.06-1.27,11,11,0,0,0,.29-3.32V8.86a11.91,11.91,0,0,0-.29-3.43,2.76,2.76,0,0,0-1.18-1.2,4.73,4.73,0,0,0-2.38-.51h-1.19v-1h17.8v1a5.84,5.84,0,0,0-2.77.53,2.47,2.47,0,0,0-1.08,1.24,10.36,10.36,0,0,0-.32,3.37V20L283,9.26c1.84-1.5,2.77-2.69,2.77-3.59a1.76,1.76,0,0,0-1.14-1.58,9.05,9.05,0,0,0-2.87-.37v-1h13.95v1a7.88,7.88,0,0,0-2.94.67A41,41,0,0,0,287.89,8Z"/><path class="cls-2" d="M311.14,38.5v-1h1.19a4.85,4.85,0,0,0,2.39-.48,3,3,0,0,0,1.22-1.34,12.42,12.42,0,0,0,.24-3.32V8.86a11.91,11.91,0,0,0-.29-3.43,2.67,2.67,0,0,0-1.17-1.2,4.79,4.79,0,0,0-2.39-.51h-1.19v-1h16a25.63,25.63,0,0,1,10.31,1.74A15.23,15.23,0,0,1,344.7,11a19.41,19.41,0,0,1,2.46,9.78,19.33,19.33,0,0,1-1.21,7,16.09,16.09,0,0,1-3.14,5.24,15.19,15.19,0,0,1-4.44,3.32,23.28,23.28,0,0,1-6.16,1.94,28.93,28.93,0,0,1-5.06.32ZM324.78,4.78V32.67a9.92,9.92,0,0,0,.21,2.72,1.46,1.46,0,0,0,.71.76,4.22,4.22,0,0,0,2.06.4,8,8,0,0,0,6.72-3c2.11-2.7,3.16-6.91,3.16-12.6q0-6.88-2.16-11a9.2,9.2,0,0,0-4.4-4.37A17,17,0,0,0,324.78,4.78Z"/><path class="cls-2" d="M370.29,2.24q8.54-.32,13.88,5a17.91,17.91,0,0,1,5.34,13.26,19.07,19.07,0,0,1-4,12q-5.28,6.85-14.9,6.86T355.7,32.78a19,19,0,0,1-4.16-12.26A17.81,17.81,0,0,1,357,7.24,17.25,17.25,0,0,1,370.29,2.24Zm.31,1.69q-4.91,0-7.46,5-2.08,4.11-2.08,11.81,0,9.15,3.21,13.53a7.35,7.35,0,0,0,6.28,3.06A7.5,7.5,0,0,0,375.08,36a10.78,10.78,0,0,0,3.62-5.39A30,30,0,0,0,380,21q0-7.08-1.32-10.61a10.4,10.4,0,0,0-3.36-5A8,8,0,0,0,370.6,3.93Z"/><path class="cls-2" d="M428.69,1.93v12.6h-1a16,16,0,0,0-5.3-7.86A12.48,12.48,0,0,0,414.69,4,10,10,0,0,0,408,6.24a12.11,12.11,0,0,0-3.77,6.29,31.07,31.07,0,0,0-1.11,8.28,30.19,30.19,0,0,0,1.21,9,10.2,10.2,0,0,0,3.92,5.7,11.24,11.24,0,0,0,6.42,1.82,12.91,12.91,0,0,0,2.65-.28,18.67,18.67,0,0,0,2.78-.8V28.82a8.07,8.07,0,0,0-.29-2.73,2.69,2.69,0,0,0-1.2-1.12,4.55,4.55,0,0,0-2.2-.5h-.93v-1h17.38v1a7.61,7.61,0,0,0-2.75.54,2.74,2.74,0,0,0-1.2,1.36,7.35,7.35,0,0,0-.24,2.45v7.44a34.71,34.71,0,0,1-7.13,2.3,37.28,37.28,0,0,1-7.69.78A22.39,22.39,0,0,1,405.42,38a21.06,21.06,0,0,1-5.93-3.64,16.84,16.84,0,0,1-4-5.08,17.73,17.73,0,0,1-1.85-8.14,18.38,18.38,0,0,1,5.67-13.64A19.56,19.56,0,0,1,413.55,1.9a24.93,24.93,0,0,1,4.8.42,24.16,24.16,0,0,1,3.76,1.2,15.73,15.73,0,0,0,3.07,1A2.07,2.07,0,0,0,426.55,4a4.81,4.81,0,0,0,1.16-2Z"/><path class="cls-2" d="M467.79,2.24q8.55-.32,13.88,5A17.91,17.91,0,0,1,487,20.49a19,19,0,0,1-4,12q-5.26,6.85-14.9,6.86t-14.92-6.54A18.93,18.93,0,0,1,449,20.52a17.85,17.85,0,0,1,5.42-13.28A17.28,17.28,0,0,1,467.79,2.24Zm.32,1.69q-4.91,0-7.46,5-2.08,4.11-2.09,11.81,0,9.15,3.22,13.53a7.33,7.33,0,0,0,6.27,3.06A7.51,7.51,0,0,0,472.59,36a10.77,10.77,0,0,0,3.61-5.39A30,30,0,0,0,477.49,21q0-7.08-1.31-10.61a10.34,10.34,0,0,0-3.37-5A8,8,0,0,0,468.11,3.93Z"/><path class="cls-2" d="M513,19.54q5.09,1.18,7.14,2.88a7.63,7.63,0,0,1,3,6.22,8.22,8.22,0,0,1-3.25,6.67q-4,3.19-11.57,3.19H490.07v-1a8.17,8.17,0,0,0,3.36-.46,2.68,2.68,0,0,0,1.24-1.2,10.78,10.78,0,0,0,.36-3.64V9a10.94,10.94,0,0,0-.36-3.65,2.57,2.57,0,0,0-1.25-1.2,8.41,8.41,0,0,0-3.35-.45v-1h17.14q6.15,0,8.7,1.09a9.08,9.08,0,0,1,4,3.27,8.12,8.12,0,0,1,1.47,4.63,6.58,6.58,0,0,1-1.87,4.6Q517.67,18.35,513,19.54Zm-9.6,1.35V32.36l0,1.31a2.93,2.93,0,0,0,.73,2.15,2.89,2.89,0,0,0,2.15.73,8.19,8.19,0,0,0,3.89-.94,6.49,6.49,0,0,0,2.73-2.71,8.35,8.35,0,0,0,.95-4,8.82,8.82,0,0,0-1.16-4.5,6.27,6.27,0,0,0-3.2-2.78A17.17,17.17,0,0,0,503.36,20.89Zm0-2.06a13.59,13.59,0,0,0,5.52-.84,6.31,6.31,0,0,0,2.73-2.38,7.22,7.22,0,0,0,.95-3.9,7.35,7.35,0,0,0-.93-3.89A6,6,0,0,0,509,5.51a14.32,14.32,0,0,0-5.59-.76Z"/><path class="cls-2" d="M539.67,4.8V19.36h.71a5.65,5.65,0,0,0,4.93-2.14,13.09,13.09,0,0,0,2-6.3h1V29.64h-1a13.92,13.92,0,0,0-1.33-5A5.69,5.69,0,0,0,543.57,22a9,9,0,0,0-3.9-.68V31.41a14.36,14.36,0,0,0,.25,3.61,2.15,2.15,0,0,0,.93,1.08,4.44,4.44,0,0,0,2.22.42h2.14a12.8,12.8,0,0,0,8-2.32,12.89,12.89,0,0,0,4.34-7.07h1L556.94,38.5H526v-1h1.18a5,5,0,0,0,2.51-.55,2.42,2.42,0,0,0,1-1.27,10.63,10.63,0,0,0,.29-3.32V8.86a18.65,18.65,0,0,0-.13-3,2.52,2.52,0,0,0-1-1.42,4.53,4.53,0,0,0-2.74-.74H526v-1H556V13.32h-1a13,13,0,0,0-2.15-5.57,8,8,0,0,0-3.91-2.47,21,21,0,0,0-5.54-.48Z"/><path class="cls-2" d="M561.68,38.5v-1h1.19a4.85,4.85,0,0,0,2.39-.48,3,3,0,0,0,1.22-1.34,12.42,12.42,0,0,0,.24-3.32V8.86a11.91,11.91,0,0,0-.29-3.43,2.67,2.67,0,0,0-1.17-1.2,4.79,4.79,0,0,0-2.39-.51h-1.19v-1h16A25.63,25.63,0,0,1,588,4.49,15.23,15.23,0,0,1,595.24,11a19.41,19.41,0,0,1,2.46,9.78,19.33,19.33,0,0,1-1.21,7,16.09,16.09,0,0,1-3.14,5.24,15.19,15.19,0,0,1-4.44,3.32,23.28,23.28,0,0,1-6.16,1.94,28.93,28.93,0,0,1-5.06.32ZM575.32,4.78V32.67a9.92,9.92,0,0,0,.21,2.72,1.5,1.5,0,0,0,.71.76,4.22,4.22,0,0,0,2.06.4,8,8,0,0,0,6.72-3c2.11-2.7,3.16-6.91,3.16-12.6q0-6.88-2.16-11a9.2,9.2,0,0,0-4.4-4.37A17,17,0,0,0,575.32,4.78Z"/><path class="cls-2" d="M619.75,37.52v1h-18.7v-1h1.19a4.93,4.93,0,0,0,2.5-.55,2.43,2.43,0,0,0,1.06-1.27,11,11,0,0,0,.29-3.32V8.86a11.91,11.91,0,0,0-.29-3.43,2.76,2.76,0,0,0-1.18-1.2,4.75,4.75,0,0,0-2.38-.51h-1.19v-1h18.7v1h-1.19a5.07,5.07,0,0,0-2.51.55A2.6,2.6,0,0,0,615,5.54a11,11,0,0,0-.29,3.32V32.38a10.94,10.94,0,0,0,.31,3.43,2.66,2.66,0,0,0,1.18,1.2,4.79,4.79,0,0,0,2.39.51Z"/><path class="cls-2" d="M635.7,4.8V19.36h.71a5.65,5.65,0,0,0,4.93-2.14,13.09,13.09,0,0,0,1.95-6.3h1V29.64h-1a13.92,13.92,0,0,0-1.33-5A5.69,5.69,0,0,0,639.6,22a9,9,0,0,0-3.9-.68V31.41A14.36,14.36,0,0,0,636,35a2.15,2.15,0,0,0,.93,1.08,4.44,4.44,0,0,0,2.22.42h2.13a12.81,12.81,0,0,0,8-2.32,12.89,12.89,0,0,0,4.34-7.07h1L653,38.5h-30.9v-1h1.18a5,5,0,0,0,2.51-.55,2.42,2.42,0,0,0,1-1.27,11,11,0,0,0,.29-3.32V8.86a18.65,18.65,0,0,0-.13-3,2.52,2.52,0,0,0-1-1.42,4.53,4.53,0,0,0-2.74-.74h-1.18v-1H652V13.32h-1a13,13,0,0,0-2.15-5.57,8,8,0,0,0-3.91-2.47,21,21,0,0,0-5.54-.48Z"/><path class="cls-2" d="M670.45,2.75l17.64,22.17V9.55c0-2.15-.31-3.6-.92-4.35-.85-1-2.26-1.51-4.25-1.48v-1h11.81v1a9.1,9.1,0,0,0-3,.75A3.08,3.08,0,0,0,690.47,6,10.49,10.49,0,0,0,690,9.55V39.32h-.9L665,9.55V32.28c0,2,.47,3.44,1.42,4.16a5.16,5.16,0,0,0,3.23,1.08h.84v1H657.77v-1c2,0,3.34-.42,4.11-1.21a5.69,5.69,0,0,0,1.16-4V7l-.76-1a7,7,0,0,0-2-1.87,6.07,6.07,0,0,0-2.5-.5v-1Z"/><path class="cls-2" d="M732,1.93V14.32h-1a13.23,13.23,0,0,0-4.32-7.44,11,11,0,0,0-7.17-2.58,10.54,10.54,0,0,0-6.14,1.93,11.17,11.17,0,0,0-4.09,5,22.78,22.78,0,0,0-1.66,8.86,29.59,29.59,0,0,0,1.21,8.74,11.57,11.57,0,0,0,3.8,6,10.52,10.52,0,0,0,6.69,2,13,13,0,0,0,6.19-1.48,21.39,21.39,0,0,0,5.92-5.09v3.09a19.66,19.66,0,0,1-6.27,4.55,19,19,0,0,1-7.6,1.41A21.83,21.83,0,0,1,707.4,37a16.19,16.19,0,0,1-6.85-6.59,18.37,18.37,0,0,1-2.42-9.15,19,19,0,0,1,2.68-9.7A18.8,18.8,0,0,1,708,4.46a19.52,19.52,0,0,1,9.66-2.53,21.9,21.9,0,0,1,8,1.63,12,12,0,0,0,3.09.95,2,2,0,0,0,1.46-.62,3.36,3.36,0,0,0,.8-2Z"/><path class="cls-2" d="M749.71,4.8V19.36h.71a5.65,5.65,0,0,0,4.93-2.14,13.09,13.09,0,0,0,1.95-6.3h1V29.64h-1a13.92,13.92,0,0,0-1.33-5A5.69,5.69,0,0,0,753.61,22a9,9,0,0,0-3.9-.68V31.41A14.36,14.36,0,0,0,750,35a2.17,2.17,0,0,0,.94,1.08,4.37,4.37,0,0,0,2.21.42h2.14a12.83,12.83,0,0,0,8-2.32,12.94,12.94,0,0,0,4.33-7.07h1L767,38.5h-30.9v-1h1.18a4.94,4.94,0,0,0,2.51-.55,2.37,2.37,0,0,0,1.05-1.27,10.63,10.63,0,0,0,.29-3.32V8.86a18.65,18.65,0,0,0-.13-3,2.5,2.5,0,0,0-1-1.42,4.58,4.58,0,0,0-2.75-.74h-1.18v-1H766V13.32h-1a12.83,12.83,0,0,0-2.15-5.57,7.91,7.91,0,0,0-3.91-2.47,21,21,0,0,0-5.54-.48Z"/><path class="cls-2" d="M234.61,64.47h-6.4V62.81h14.72v1.66h-6.4V81h-1.92Z"/><path class="cls-2" d="M249,67.93a6.56,6.56,0,0,1,3.18-.7V69l-.44,0a4.39,4.39,0,0,0-3.38,1.33A5.29,5.29,0,0,0,247.09,74v7h-1.85V67.33H247V70A4.46,4.46,0,0,1,249,67.93Z"/><path class="cls-2" d="M264.33,68.56a5.21,5.21,0,0,1,1.43,4V81H264V78.87a4.31,4.31,0,0,1-1.83,1.67,6.44,6.44,0,0,1-2.88.6,5.62,5.62,0,0,1-3.64-1.1,3.76,3.76,0,0,1-.09-5.69,6.18,6.18,0,0,1,4-1.07h4.34v-.83a3.5,3.5,0,0,0-1-2.69,4.1,4.1,0,0,0-2.88-.92,7.26,7.26,0,0,0-2.5.43,6.16,6.16,0,0,0-2.05,1.18l-.83-1.38a7.29,7.29,0,0,1,2.49-1.36,9.72,9.72,0,0,1,3.07-.48A5.82,5.82,0,0,1,264.33,68.56ZM262.25,79a4.23,4.23,0,0,0,1.66-2.06V74.66h-4.29c-2.34,0-3.51.82-3.51,2.45A2.23,2.23,0,0,0,257,79a4.16,4.16,0,0,0,2.55.69A4.86,4.86,0,0,0,262.25,79Z"/><path class="cls-2" d="M270.75,64a1.28,1.28,0,0,1-.39-.94,1.26,1.26,0,0,1,.39-.91,1.3,1.3,0,0,1,1-.39,1.34,1.34,0,0,1,1,.38,1.2,1.2,0,0,1,.39.9,1.36,1.36,0,0,1-2.31,1Zm0,3.38h1.84V81h-1.84Z"/><path class="cls-2" d="M288.83,68.72a5.83,5.83,0,0,1,1.52,4.36V81h-1.84V73.26A4.53,4.53,0,0,0,287.44,70a4,4,0,0,0-3-1.12,4.71,4.71,0,0,0-3.5,1.31,5,5,0,0,0-1.28,3.63V81h-1.85V67.33h1.77v2.52a5.06,5.06,0,0,1,2.09-1.93,6.69,6.69,0,0,1,3.11-.69A5.56,5.56,0,0,1,288.83,68.72Z"/><path class="cls-2" d="M327.56,62.81,321.42,81h-2l-5.34-15.53L308.71,81h-2l-6.14-18.2h2l5.25,15.65,5.43-15.65H315l5.35,15.73,5.33-15.73Z"/><path class="cls-2" d="M330.57,64a1.27,1.27,0,0,1-.38-.94,1.25,1.25,0,0,1,.38-.91,1.4,1.4,0,0,1,1.93,0,1.2,1.2,0,0,1,.39.9,1.33,1.33,0,0,1-1.35,1.35A1.33,1.33,0,0,1,330.57,64Zm0,3.38h1.85V81H330.6Z"/><path class="cls-2" d="M344.8,80.17a3.52,3.52,0,0,1-1.29.72,5.3,5.3,0,0,1-1.6.25,4,4,0,0,1-3-1,4,4,0,0,1-1-2.94V68.89h-2.45V67.33h2.45v-3h1.84v3h4.16v1.56h-4.16v8.16a2.6,2.6,0,0,0,.61,1.86,2.32,2.32,0,0,0,1.76.64,3.38,3.38,0,0,0,1.1-.18,2.8,2.8,0,0,0,.93-.52Z"/><path class="cls-2" d="M359.21,68.72a5.83,5.83,0,0,1,1.52,4.36V81h-1.84V73.26A4.53,4.53,0,0,0,357.82,70a4,4,0,0,0-3-1.12,4.71,4.71,0,0,0-3.5,1.31A5,5,0,0,0,350,73.83V81h-1.85V61.71H350v8a4.9,4.9,0,0,1,2.08-1.84,6.7,6.7,0,0,1,3-.65A5.56,5.56,0,0,1,359.21,68.72Z"/><path class="cls-2" d="M373,62.81h1.93V79.34h10.19V81H373Z"/><path class="cls-2" d="M389.7,80.24a6.61,6.61,0,0,1-2.5-2.48,7.54,7.54,0,0,1,0-7.18,6.45,6.45,0,0,1,2.5-2.47,7.64,7.64,0,0,1,7.12,0,6.27,6.27,0,0,1,2.48,2.47,7.61,7.61,0,0,1,0,7.18,6.42,6.42,0,0,1-2.48,2.48,7.49,7.49,0,0,1-7.12,0Zm6.17-1.41A4.62,4.62,0,0,0,397.68,77a6.27,6.27,0,0,0,0-5.56,4.58,4.58,0,0,0-1.81-1.89,5.49,5.49,0,0,0-5.22,0,4.67,4.67,0,0,0-1.82,1.89,6.1,6.1,0,0,0,0,5.56,4.71,4.71,0,0,0,1.82,1.88,5.42,5.42,0,0,0,5.22,0Z"/><path class="cls-2" d="M415.07,67.33,409,81h-1.9L401,67.33H403L408.08,79l5.17-11.65Z"/><path class="cls-2" d="M429.19,74.74H417.75a4.89,4.89,0,0,0,1.64,3.44,5.43,5.43,0,0,0,3.74,1.32,5.78,5.78,0,0,0,2.34-.46,5.09,5.09,0,0,0,1.85-1.34l1,1.2a5.86,5.86,0,0,1-2.28,1.66,8.12,8.12,0,0,1-6.73-.32,6.49,6.49,0,0,1-2.53-2.48,7.07,7.07,0,0,1-.91-3.59,7.34,7.34,0,0,1,.87-3.59,6.24,6.24,0,0,1,2.39-2.47,6.65,6.65,0,0,1,3.42-.88,6.58,6.58,0,0,1,3.4.88,6.23,6.23,0,0,1,2.37,2.46,7.43,7.43,0,0,1,.86,3.6Zm-9.92-4.67a5,5,0,0,0-1.52,3.29h9.7a5,5,0,0,0-1.52-3.29,5,5,0,0,0-6.66,0Z"/><path class="cls-2" d="M434.18,78.71a1.36,1.36,0,0,1,.39,1,2.82,2.82,0,0,1-.09.67,6.58,6.58,0,0,1-.27.83l-1.09,3.59h-1.25l.88-3.77a1.24,1.24,0,0,1-.67-.48,1.32,1.32,0,0,1-.26-.84,1.36,1.36,0,0,1,.39-1,1.39,1.39,0,0,1,2,0Z"/><path class="cls-2" d="M446.83,80.51A7,7,0,0,1,444,78.8l.75-1.49a7.15,7.15,0,0,0,2.63,1.6,9.53,9.53,0,0,0,3.38.61,6.21,6.21,0,0,0,3.66-.89,2.77,2.77,0,0,0,1.23-2.33,2.29,2.29,0,0,0-.67-1.74,4.44,4.44,0,0,0-1.62-1,25.58,25.58,0,0,0-2.68-.77,29.38,29.38,0,0,1-3.28-1,5.38,5.38,0,0,1-2.09-1.47,3.91,3.91,0,0,1-.87-2.68,4.52,4.52,0,0,1,.73-2.51,5,5,0,0,1,2.23-1.8,9.21,9.21,0,0,1,3.75-.68,10.81,10.81,0,0,1,3.05.43,9,9,0,0,1,2.59,1.18l-.65,1.54a8.72,8.72,0,0,0-2.44-1.13,8.86,8.86,0,0,0-2.55-.38,5.89,5.89,0,0,0-3.6.92,2.86,2.86,0,0,0-1.21,2.38,2.36,2.36,0,0,0,.66,1.75,4.2,4.2,0,0,0,1.67,1c.66.23,1.56.49,2.69.77a27.35,27.35,0,0,1,3.23,1,5.35,5.35,0,0,1,2.1,1.46,3.86,3.86,0,0,1,.85,2.64,4.45,4.45,0,0,1-.74,2.51,5,5,0,0,1-2.27,1.79,9.53,9.53,0,0,1-3.77.66A11.55,11.55,0,0,1,446.83,80.51Z"/><path class="cls-2" d="M461.27,64a1.28,1.28,0,0,1-.39-.94,1.26,1.26,0,0,1,.39-.91,1.31,1.31,0,0,1,1-.39,1.34,1.34,0,0,1,1,.38,1.2,1.2,0,0,1,.39.9,1.36,1.36,0,0,1-2.32,1Zm0,3.38h1.85V81H461.3Z"/><path class="cls-2" d="M479.36,68.72a5.87,5.87,0,0,1,1.52,4.36V81H479V73.26A4.53,4.53,0,0,0,478,70a4,4,0,0,0-3.05-1.12,4.68,4.68,0,0,0-3.49,1.31,5,5,0,0,0-1.29,3.63V81h-1.85V67.33h1.77v2.52a5.09,5.09,0,0,1,2.1-1.93,6.65,6.65,0,0,1,3.1-.69A5.59,5.59,0,0,1,479.36,68.72Z"/><path class="cls-2" d="M488,80.25a6.43,6.43,0,0,1-2.51-2.48,7.14,7.14,0,0,1-.91-3.6,7,7,0,0,1,.91-3.59A6.41,6.41,0,0,1,488,68.11a7.36,7.36,0,0,1,3.63-.88,7.05,7.05,0,0,1,3.16.69,5.24,5.24,0,0,1,2.19,2l-1.38.94a4.32,4.32,0,0,0-1.71-1.53,5.23,5.23,0,0,0-2.26-.5,5.39,5.39,0,0,0-2.67.66,4.59,4.59,0,0,0-1.84,1.89,6.12,6.12,0,0,0,0,5.57A4.6,4.6,0,0,0,489,78.83a5.29,5.29,0,0,0,2.67.67,5.23,5.23,0,0,0,2.26-.5,4.24,4.24,0,0,0,1.71-1.5l1.38.93a5.2,5.2,0,0,1-2.21,2,7,7,0,0,1-3.14.69A7.37,7.37,0,0,1,488,80.25Z"/><path class="cls-2" d="M512.26,74.74H500.82a4.85,4.85,0,0,0,1.64,3.44,5.41,5.41,0,0,0,3.74,1.32,5.78,5.78,0,0,0,2.34-.46,5.09,5.09,0,0,0,1.85-1.34l1,1.2a5.86,5.86,0,0,1-2.28,1.66,8.12,8.12,0,0,1-6.73-.32,6.58,6.58,0,0,1-2.54-2.48,7.17,7.17,0,0,1-.91-3.59,7.34,7.34,0,0,1,.87-3.59,6.34,6.34,0,0,1,2.4-2.47,6.65,6.65,0,0,1,3.42-.88,6.58,6.58,0,0,1,3.4.88,6.23,6.23,0,0,1,2.37,2.46,7.43,7.43,0,0,1,.86,3.6Zm-9.92-4.67a5,5,0,0,0-1.52,3.29h9.7A5,5,0,0,0,509,70.07a4.7,4.7,0,0,0-3.34-1.26A4.66,4.66,0,0,0,502.34,70.07Z"/><path class="cls-2" d="M526.69,62.81V81h-1.87V64.47h-4.29V62.81Z"/><path class="cls-2" d="M542.24,65a10.46,10.46,0,0,1,1.92,6.72,11.61,11.61,0,0,1-1,5.15,7.26,7.26,0,0,1-2.91,3.18,8.58,8.58,0,0,1-4.37,1.08,8.16,8.16,0,0,1-4.31-1l.75-1.5a6.37,6.37,0,0,0,3.54.85,6,6,0,0,0,4.73-1.91,8.05,8.05,0,0,0,1.71-5.55c0-.45,0-.94-.07-1.48a5,5,0,0,1-2.16,2.3,6.91,6.91,0,0,1-3.41.82,7.18,7.18,0,0,1-3.18-.68,5.11,5.11,0,0,1-2.17-1.91,5.25,5.25,0,0,1-.78-2.87,5.24,5.24,0,0,1,3-4.9,7.21,7.21,0,0,1,3.19-.69A6.71,6.71,0,0,1,542.24,65Zm-2.9,6.56A4,4,0,0,0,541,70.16a3.65,3.65,0,0,0,0-4,4,4,0,0,0-1.65-1.43,5.83,5.83,0,0,0-2.6-.54,4.73,4.73,0,0,0-3.21,1.07,3.62,3.62,0,0,0-1.24,2.88,3.58,3.58,0,0,0,1.24,2.86,4.92,4.92,0,0,0,3.34,1.06A5.36,5.36,0,0,0,539.34,71.59Z"/><path class="cls-2" d="M559.93,73.18a4.22,4.22,0,0,1,.92,2.76,4.62,4.62,0,0,1-.85,2.77,5.51,5.51,0,0,1-2.46,1.81,10,10,0,0,1-3.76.64,8.47,8.47,0,0,1-5.15-1.4,4.55,4.55,0,0,1-1.87-3.82,4.29,4.29,0,0,1,.9-2.77,5.46,5.46,0,0,1,2.61-1.71,4.42,4.42,0,0,1-2.13-1.57,4,4,0,0,1-.73-2.43A4.18,4.18,0,0,1,549.14,64a7.52,7.52,0,0,1,4.64-1.3,8.94,8.94,0,0,1,3.37.58,5.19,5.19,0,0,1,2.25,1.68,4.23,4.23,0,0,1,.8,2.55,4,4,0,0,1-.75,2.43,4.61,4.61,0,0,1-2.16,1.57A5.57,5.57,0,0,1,559.93,73.18Zm-2.37,5.41a3.14,3.14,0,0,0,1.37-2.68,3.08,3.08,0,0,0-1.37-2.66,7.74,7.74,0,0,0-7.54,0,3.07,3.07,0,0,0-1.36,2.66A3.14,3.14,0,0,0,550,78.6a7.73,7.73,0,0,0,7.55,0Zm-7.08-8.69a5.46,5.46,0,0,0,3.3.89,5.52,5.52,0,0,0,3.32-.89,2.79,2.79,0,0,0,1.21-2.36,2.84,2.84,0,0,0-1.24-2.42,5.53,5.53,0,0,0-3.29-.88,5.46,5.46,0,0,0-3.29.88,3,3,0,0,0,0,4.78Z"/><path class="cls-2" d="M575.88,79.34V81H563.12V79.68l7.56-7.41a10.11,10.11,0,0,0,1.94-2.43,4.65,4.65,0,0,0,.51-2.07A3.06,3.06,0,0,0,572,65.26a5,5,0,0,0-3.16-.89,6.25,6.25,0,0,0-5,2l-1.32-1.14a7,7,0,0,1,2.72-1.92,9.76,9.76,0,0,1,3.73-.68,6.83,6.83,0,0,1,4.4,1.31,4.37,4.37,0,0,1,1.63,3.6,6.28,6.28,0,0,1-.62,2.71,11.65,11.65,0,0,1-2.37,3l-6.19,6.08Z"/><line class="cls-3" x1="196.6" y1="73.67" y2="73.67"/><line class="cls-3" x1="804" y1="73.67" x2="607.94" y2="73.67"/></g></svg>