<svg xmlns="http://www.w3.org/2000/svg" viewBox="0 0 457.44 142.16"><defs><style>.cls-1{fill:#821517;}.cls-2{fill:#fff;}</style></defs><title>title-outlines-m</title><g id="Layer_3" data-name="Layer 3"><polygon class="cls-1" points="112.18 1.37 129.56 35.62 111.31 35.62 112.18 1.37"/><ellipse class="cls-1" cx="264.31" cy="18.83" rx="15.75" ry="17.5"/><ellipse class="cls-1" cx="156.27" cy="78.19" rx="15.75" ry="17.5"/><path class="cls-1" d="M31.67,78.17A16.63,16.63,0,0,0,15,61.54c-9.18,0-5.56,7.45-5.56,16.63S5.86,94.79,15,94.79A16.62,16.62,0,0,0,31.67,78.17Z"/></g><g id="Layer_1" data-name="Layer 1"><path class="cls-2" d="M132,23.94l-1.34,12.55H98.94v-1h1.19a4.92,4.92,0,0,0,2.5-.56,2.41,2.41,0,0,0,1.06-1.26,11,11,0,0,0,.29-3.32V6.86a11.91,11.91,0,0,0-.29-3.43,2.66,2.66,0,0,0-1.18-1.2,4.75,4.75,0,0,0-2.38-.52H98.94v-1H118v1h-1.55a5,5,0,0,0-2.51.56,2.58,2.58,0,0,0-1.08,1.26,11,11,0,0,0-.29,3.33V29.64a11.49,11.49,0,0,0,.32,3.49,2.1,2.1,0,0,0,1.24,1.12,12.39,12.39,0,0,0,3.19.24h3a10.15,10.15,0,0,0,4.74-1,8.93,8.93,0,0,0,3.29-3.17A25.91,25.91,0,0,0,131,23.94Z"/><path class="cls-2" d="M153.73,35.52v1H135v-1h1.18a4.94,4.94,0,0,0,2.51-.56,2.35,2.35,0,0,0,1.05-1.26,10.63,10.63,0,0,0,.29-3.32V6.86a11.54,11.54,0,0,0-.29-3.43,2.58,2.58,0,0,0-1.17-1.2,4.76,4.76,0,0,0-2.39-.52H135v-1h18.69v1h-1.19a4.92,4.92,0,0,0-2.5.56A2.48,2.48,0,0,0,149,3.53a10.71,10.71,0,0,0-.29,3.33V30.38a11.32,11.32,0,0,0,.3,3.42,2.68,2.68,0,0,0,1.19,1.2,4.64,4.64,0,0,0,2.38.52Z"/><path class="cls-2" d="M193.41.74v1a5.8,5.8,0,0,0-3.48,2.09A32.15,32.15,0,0,0,186.64,10L174.32,37.31h-.87L161.19,8.89a36,36,0,0,0-3-6,4.25,4.25,0,0,0-2.84-1.14v-1h17.14v1H172a6.06,6.06,0,0,0-3.16.58,1.3,1.3,0,0,0-.61,1.16,3.68,3.68,0,0,0,.21,1.12c.14.44.62,1.59,1.42,3.47l7.63,17.8L184.5,10c.85-1.91,1.36-3.2,1.56-3.85a6.1,6.1,0,0,0,.29-1.66,2.43,2.43,0,0,0-.42-1.4,2.69,2.69,0,0,0-1.24-.92,8.34,8.34,0,0,0-3-.45v-1Z"/><path class="cls-2" d="M208.68,2.79V17.35h.71q3.41,0,4.93-2.14a13.09,13.09,0,0,0,2-6.3h1V27.63h-1a13.92,13.92,0,0,0-1.33-5A5.69,5.69,0,0,0,212.58,20a8.93,8.93,0,0,0-3.9-.67V29.4a14.36,14.36,0,0,0,.25,3.61,2.17,2.17,0,0,0,.94,1.08,4.37,4.37,0,0,0,2.21.42h2.14a12.83,12.83,0,0,0,8-2.32,12.91,12.91,0,0,0,4.33-7.06h1L226,36.49h-30.9v-1h1.18a4.94,4.94,0,0,0,2.51-.56,2.35,2.35,0,0,0,1-1.26,10.63,10.63,0,0,0,.29-3.32V6.86a18.56,18.56,0,0,0-.13-3,2.53,2.53,0,0,0-1-1.43,4.56,4.56,0,0,0-2.75-.74h-1.18v-1H225V11.31h-1a12.78,12.78,0,0,0-2.15-5.56,7.93,7.93,0,0,0-3.91-2.48,21,21,0,0,0-5.54-.48Z"/><path class="cls-2" d="M264.34.24q8.55-.31,13.88,5a17.91,17.91,0,0,1,5.34,13.26,19,19,0,0,1-4,12q-5.26,6.86-14.9,6.86t-14.92-6.54a18.91,18.91,0,0,1-4.17-12.26A17.86,17.86,0,0,1,251,5.23,17.27,17.27,0,0,1,264.34.24Zm.32,1.68c-3.27,0-5.76,1.68-7.46,5-1.39,2.75-2.09,6.68-2.09,11.82q0,9.15,3.22,13.52a7.33,7.33,0,0,0,6.27,3.06A7.51,7.51,0,0,0,269.14,34a10.77,10.77,0,0,0,3.61-5.39A30,30,0,0,0,274,19q0-7.1-1.31-10.61a10.24,10.24,0,0,0-3.37-5A7.9,7.9,0,0,0,264.66,1.92Z"/><path class="cls-2" d="M308,26.31H295.32l-1.5,3.48a7.85,7.85,0,0,0-.74,2.88,2.39,2.39,0,0,0,1.21,2.21,10,10,0,0,0,3.51.64v1H285.91v-1a5.34,5.34,0,0,0,3.16-1.6,21.05,21.05,0,0,0,3.06-5.39L304.92,0h.5l12.89,29.32c1.23,2.78,2.25,4.53,3,5.25a4.16,4.16,0,0,0,2.53,1v1h-17.3v-1h.71a5.48,5.48,0,0,0,2.93-.58,1.41,1.41,0,0,0,.58-1.22,3.08,3.08,0,0,0-.16-1c0-.16-.3-.82-.79-2Zm-.89-1.95-5.33-12.31-5.48,12.31Z"/><path class="cls-2" d="M347,14.42l12.57,15.74a20.23,20.23,0,0,0,4.59,4.51,5.57,5.57,0,0,0,2.95.85v1H348.48v-1a4.92,4.92,0,0,0,2.28-.56,1.19,1.19,0,0,0,.51-1c0-.74-.8-2.13-2.42-4.17l-8.2-10.31-1.32,1.11v9.76a11.09,11.09,0,0,0,.32,3.48A2.69,2.69,0,0,0,340.86,35a6.37,6.37,0,0,0,2.87.49v1h-18v-1h1.18a4.94,4.94,0,0,0,2.51-.56,2.35,2.35,0,0,0,1.05-1.26,10.63,10.63,0,0,0,.29-3.32V6.86a11.54,11.54,0,0,0-.29-3.43,2.58,2.58,0,0,0-1.17-1.2,4.76,4.76,0,0,0-2.39-.52H325.7v-1h17.8v1a5.81,5.81,0,0,0-2.77.53,2.51,2.51,0,0,0-1.08,1.24,10.44,10.44,0,0,0-.32,3.38V18L352.59,7.25c1.85-1.49,2.77-2.69,2.77-3.58a1.78,1.78,0,0,0-1.13-1.59,9.46,9.46,0,0,0-2.88-.37v-1H365.3v1a7.86,7.86,0,0,0-2.94.68A41.5,41.5,0,0,0,357.44,6Z"/><path class="cls-2" d="M0,95.86v-1H1.19a4.69,4.69,0,0,0,2.38-.49A2.93,2.93,0,0,0,4.8,93.06,12.47,12.47,0,0,0,5,89.74V66.22a11.91,11.91,0,0,0-.29-3.43,2.66,2.66,0,0,0-1.18-1.2,4.75,4.75,0,0,0-2.38-.51H0v-1H16a25.59,25.59,0,0,1,10.31,1.74,15.24,15.24,0,0,1,7.24,6.46A20.52,20.52,0,0,1,34.8,85a15.85,15.85,0,0,1-3.13,5.25,15.37,15.37,0,0,1-4.45,3.32,23.57,23.57,0,0,1-6.15,1.94,29,29,0,0,1-5.07.32ZM13.63,62.13V90a9.77,9.77,0,0,0,.21,2.71,1.52,1.52,0,0,0,.71.77,4.38,4.38,0,0,0,2.06.39,8,8,0,0,0,6.72-3q3.17-4.07,3.17-12.6,0-6.89-2.16-11a9.29,9.29,0,0,0-4.41-4.38A17.32,17.32,0,0,0,13.63,62.13Z"/><path class="cls-2" d="M59.14,59.6q8.55-.32,13.88,5a18,18,0,0,1,5.34,13.27,19,19,0,0,1-4,12q-5.26,6.86-14.9,6.85T44.56,90.13a18.91,18.91,0,0,1-4.17-12.26A17.82,17.82,0,0,1,45.81,64.6,17.28,17.28,0,0,1,59.14,59.6Zm.32,1.69q-4.91,0-7.46,5-2.09,4.11-2.09,11.81,0,9.15,3.22,13.53a7.33,7.33,0,0,0,6.28,3.06,7.5,7.5,0,0,0,4.53-1.32A10.86,10.86,0,0,0,67.55,88a30.06,30.06,0,0,0,1.29-9.67c0-4.73-.43-8.26-1.31-10.61a10.29,10.29,0,0,0-3.37-5A7.89,7.89,0,0,0,59.46,61.29Z"/><path class="cls-2" d="M117.54,59.28V71.89h-1a16.09,16.09,0,0,0-5.3-7.86,12.51,12.51,0,0,0-7.73-2.69,9.94,9.94,0,0,0-6.67,2.26,12.21,12.21,0,0,0-3.77,6.28A31.07,31.07,0,0,0,92,78.16a30.19,30.19,0,0,0,1.22,9,10.31,10.31,0,0,0,3.91,5.7,11.24,11.24,0,0,0,6.42,1.82,13.57,13.57,0,0,0,2.65-.28,18.52,18.52,0,0,0,2.79-.81V86.18a8,8,0,0,0-.29-2.73,2.72,2.72,0,0,0-1.21-1.12,4.5,4.5,0,0,0-2.2-.5h-.92v-1h17.38v1a7.73,7.73,0,0,0-2.76.54,2.66,2.66,0,0,0-1.2,1.36,7.35,7.35,0,0,0-.24,2.45v7.43a35.15,35.15,0,0,1-7.13,2.31,37.19,37.19,0,0,1-7.68.78,22.36,22.36,0,0,1-8.45-1.38,21.34,21.34,0,0,1-5.94-3.64,17.42,17.42,0,0,1-4-5.08,17.74,17.74,0,0,1-1.84-8.15,18.36,18.36,0,0,1,5.67-13.63,19.5,19.5,0,0,1,14.26-5.56,25,25,0,0,1,4.8.42,24.85,24.85,0,0,1,3.76,1.2,15.51,15.51,0,0,0,3.07,1,2.07,2.07,0,0,0,1.37-.54,4.79,4.79,0,0,0,1.16-2Z"/><path class="cls-2" d="M156.65,59.6q8.53-.32,13.88,5a18,18,0,0,1,5.34,13.27,19.11,19.11,0,0,1-4,12q-5.28,6.86-14.9,6.85t-14.92-6.54a18.91,18.91,0,0,1-4.17-12.26,17.82,17.82,0,0,1,5.42-13.27A17.25,17.25,0,0,1,156.65,59.6Zm.31,1.69q-4.91,0-7.46,5-2.08,4.11-2.08,11.81,0,9.15,3.22,13.53a7.32,7.32,0,0,0,6.27,3.06,7.55,7.55,0,0,0,4.54-1.32A10.92,10.92,0,0,0,165.06,88a30.06,30.06,0,0,0,1.29-9.67c0-4.73-.44-8.26-1.32-10.61a10.35,10.35,0,0,0-3.36-5A7.9,7.9,0,0,0,157,61.29Z"/><path class="cls-2" d="M201.81,76.9q5.1,1.18,7.15,2.87A7.65,7.65,0,0,1,211.91,86a8.26,8.26,0,0,1-3.24,6.68q-4,3.18-11.58,3.19H178.93v-1a8.17,8.17,0,0,0,3.36-.46,2.73,2.73,0,0,0,1.24-1.2,10.93,10.93,0,0,0,.35-3.64V66.38a11,11,0,0,0-.35-3.65,2.61,2.61,0,0,0-1.25-1.2,8.44,8.44,0,0,0-3.35-.45v-1h17.14q6.13,0,8.7,1.1a9.05,9.05,0,0,1,4,3.27,8,8,0,0,1,1.48,4.62,6.59,6.59,0,0,1-1.87,4.6Q206.54,75.72,201.81,76.9Zm-9.59,1.34V89.71l0,1.32a2.54,2.54,0,0,0,2.87,2.87A8.24,8.24,0,0,0,199,93a6.35,6.35,0,0,0,2.73-2.72,8.32,8.32,0,0,0,.95-4,8.78,8.78,0,0,0-1.16-4.49A6.2,6.2,0,0,0,198.28,79,17.37,17.37,0,0,0,192.22,78.24Zm0-2a13.46,13.46,0,0,0,5.52-.85A6.23,6.23,0,0,0,200.47,73a7.31,7.31,0,0,0,.95-3.9,7.23,7.23,0,0,0-.94-3.89,5.93,5.93,0,0,0-2.67-2.31,14.17,14.17,0,0,0-5.59-.76Z"/><path class="cls-2" d="M228.52,62.16V76.71h.72a5.66,5.66,0,0,0,4.93-2.13,13.16,13.16,0,0,0,2-6.3h1V87h-1a14.13,14.13,0,0,0-1.33-5,5.82,5.82,0,0,0-2.36-2.63,9,9,0,0,0-3.91-.67V88.76a15,15,0,0,0,.25,3.62,2.21,2.21,0,0,0,.94,1.08,4.44,4.44,0,0,0,2.22.42h2.13a11.53,11.53,0,0,0,12.37-9.39h1l-1.61,11.37h-30.9v-1h1.19a4.9,4.9,0,0,0,2.5-.55,2.43,2.43,0,0,0,1.06-1.27,11,11,0,0,0,.29-3.32V66.22a19.93,19.93,0,0,0-.13-3,2.49,2.49,0,0,0-1-1.42,4.48,4.48,0,0,0-2.74-.74h-1.19v-1h29.93V70.68h-1a13,13,0,0,0-2.15-5.57,8.07,8.07,0,0,0-3.92-2.48,21.51,21.51,0,0,0-5.53-.47Z"/><path class="cls-2" d="M250.54,95.86v-1h1.19a4.69,4.69,0,0,0,2.38-.49,2.93,2.93,0,0,0,1.23-1.33,12.47,12.47,0,0,0,.24-3.32V66.22a11.91,11.91,0,0,0-.29-3.43,2.66,2.66,0,0,0-1.18-1.2,4.75,4.75,0,0,0-2.38-.51h-1.19v-1h16a25.57,25.57,0,0,1,10.3,1.74,15.24,15.24,0,0,1,7.24,6.46A20.58,20.58,0,0,1,285.35,85a16,16,0,0,1-3.14,5.25,15.37,15.37,0,0,1-4.45,3.32,23.57,23.57,0,0,1-6.15,1.94,28.93,28.93,0,0,1-5.06.32Zm13.63-33.73V90a9.77,9.77,0,0,0,.21,2.71,1.5,1.5,0,0,0,.72.77,4.34,4.34,0,0,0,2,.39,8,8,0,0,0,6.73-3Q277,86.84,277,78.3q0-6.89-2.16-11a9.29,9.29,0,0,0-4.41-4.38A17.32,17.32,0,0,0,264.17,62.13Z"/><path class="cls-2" d="M308.6,94.88v1H289.91v-1h1.18a4.94,4.94,0,0,0,2.51-.55,2.37,2.37,0,0,0,1-1.27,10.63,10.63,0,0,0,.29-3.32V66.22a11.54,11.54,0,0,0-.29-3.43,2.58,2.58,0,0,0-1.17-1.2,4.77,4.77,0,0,0-2.39-.51h-1.18v-1H308.6v1h-1.19a4.93,4.93,0,0,0-2.5.55,2.51,2.51,0,0,0-1.08,1.27,11,11,0,0,0-.29,3.32V89.74a11.41,11.41,0,0,0,.3,3.43,2.78,2.78,0,0,0,1.19,1.2,4.75,4.75,0,0,0,2.38.51Z"/><path class="cls-2" d="M324.55,62.16V76.71h.72a5.66,5.66,0,0,0,4.93-2.13,13.16,13.16,0,0,0,1.95-6.3h1V87h-1a13.91,13.91,0,0,0-1.34-5,5.76,5.76,0,0,0-2.35-2.63,9,9,0,0,0-3.91-.67V88.76a15,15,0,0,0,.25,3.62,2.21,2.21,0,0,0,.94,1.08,4.42,4.42,0,0,0,2.21.42h2.14a11.53,11.53,0,0,0,12.37-9.39h1l-1.61,11.37h-30.9v-1h1.19a4.9,4.9,0,0,0,2.5-.55,2.43,2.43,0,0,0,1.06-1.27,11,11,0,0,0,.29-3.32V66.22a19.93,19.93,0,0,0-.13-3,2.53,2.53,0,0,0-1-1.42,4.48,4.48,0,0,0-2.74-.74h-1.19v-1h29.93V70.68h-1a13,13,0,0,0-2.15-5.57,8.07,8.07,0,0,0-3.92-2.48,21.55,21.55,0,0,0-5.54-.47Z"/><path class="cls-2" d="M359.31,60.1l17.63,22.18V66.9c0-2.14-.3-3.59-.92-4.35-.84-1-2.26-1.51-4.24-1.47v-1h11.81v1a8.93,8.93,0,0,0-3,.75,3,3,0,0,0-1.21,1.5,10.31,10.31,0,0,0-.43,3.57V96.67H378L353.82,66.9V89.63q0,3.09,1.41,4.17a5.18,5.18,0,0,0,3.23,1.08h.85v1H346.62v-1c2,0,3.34-.42,4.12-1.21s1.16-2.14,1.16-4V64.4l-.77-1a6.87,6.87,0,0,0-2-1.87,6,6,0,0,0-2.51-.5v-1Z"/><path class="cls-2" d="M420.9,59.28v12.4h-1a13.16,13.16,0,0,0-4.32-7.44,11.05,11.05,0,0,0-7.18-2.58,10.61,10.61,0,0,0-6.14,1.92,11.33,11.33,0,0,0-4.09,5,22.93,22.93,0,0,0-1.66,8.86,29.59,29.59,0,0,0,1.22,8.74,11.6,11.6,0,0,0,3.79,6,10.62,10.62,0,0,0,6.7,2,13.11,13.11,0,0,0,6.18-1.47,21.28,21.28,0,0,0,5.92-5.09v3.08A19.37,19.37,0,0,1,414,95.26a19,19,0,0,1-7.61,1.41,21.82,21.82,0,0,1-10.16-2.29,16.28,16.28,0,0,1-6.86-6.59A18.41,18.41,0,0,1,387,78.64a19.51,19.51,0,0,1,9.9-16.82,19.57,19.57,0,0,1,9.67-2.54,22,22,0,0,1,8,1.64,12.41,12.41,0,0,0,3.08.95,2,2,0,0,0,1.47-.62,3.36,3.36,0,0,0,.8-2Z"/><path class="cls-2" d="M438.56,62.16V76.71h.72a5.66,5.66,0,0,0,4.93-2.13,13.16,13.16,0,0,0,2-6.3h1V87h-1a14.13,14.13,0,0,0-1.33-5,5.82,5.82,0,0,0-2.36-2.63,9,9,0,0,0-3.91-.67V88.76a15,15,0,0,0,.25,3.62,2.21,2.21,0,0,0,.94,1.08,4.44,4.44,0,0,0,2.22.42h2.13a11.53,11.53,0,0,0,12.37-9.39h1l-1.6,11.37H424.93v-1h1.19a4.9,4.9,0,0,0,2.5-.55,2.43,2.43,0,0,0,1.06-1.27,11,11,0,0,0,.29-3.32V66.22a18.56,18.56,0,0,0-.13-3,2.49,2.49,0,0,0-1-1.42,4.48,4.48,0,0,0-2.74-.74h-1.19v-1h29.93V70.68h-1a13,13,0,0,0-2.15-5.57,8,8,0,0,0-3.92-2.48,21.51,21.51,0,0,0-5.53-.47Z"/><path class="cls-2" d="M65,121.83H58.61v-1.67H73.32v1.67H66.93v16.53H65Z"/><path class="cls-2" d="M79.34,125.28a6.69,6.69,0,0,1,3.19-.7v1.8l-.45,0a4.36,4.36,0,0,0-3.38,1.33,5.28,5.28,0,0,0-1.22,3.71v7H75.64V124.69H77.4v2.67A4.55,4.55,0,0,1,79.34,125.28Z"/><path class="cls-2" d="M94.72,125.92a5.2,5.2,0,0,1,1.43,4v8.47H94.38v-2.13a4.17,4.17,0,0,1-1.83,1.66,6.42,6.42,0,0,1-2.87.6A5.6,5.6,0,0,1,86,137.4a3.75,3.75,0,0,1-.1-5.69,6.18,6.18,0,0,1,4-1.07H94.3v-.83a3.52,3.52,0,0,0-1-2.69,4.08,4.08,0,0,0-2.89-.93,7.51,7.51,0,0,0-2.5.43,6.28,6.28,0,0,0-2.05,1.19l-.83-1.38a7.31,7.31,0,0,1,2.49-1.37,9.77,9.77,0,0,1,3.07-.48A5.79,5.79,0,0,1,94.72,125.92Zm-2.08,10.4a4.21,4.21,0,0,0,1.66-2.07V132H90c-2.34,0-3.51.81-3.51,2.44a2.26,2.26,0,0,0,.91,1.89A4.16,4.16,0,0,0,90,137,4.86,4.86,0,0,0,92.64,136.32Z"/><path class="cls-2" d="M101.14,121.31a1.29,1.29,0,0,1-.39-.94,1.24,1.24,0,0,1,.39-.91,1.3,1.3,0,0,1,1-.39,1.38,1.38,0,0,1,1,.38,1.23,1.23,0,0,1,.38.9,1.32,1.32,0,0,1-1.35,1.35A1.3,1.3,0,0,1,101.14,121.31Zm0,3.38H103v13.67h-1.84Z"/><path class="cls-2" d="M119.22,126.08a5.81,5.81,0,0,1,1.53,4.35v7.93H118.9v-7.75a4.55,4.55,0,0,0-1.07-3.25,4,4,0,0,0-3-1.11,4.67,4.67,0,0,0-3.5,1.31,5,5,0,0,0-1.28,3.63v7.17h-1.85V124.69h1.77v2.52a5.15,5.15,0,0,1,2.09-1.94,6.69,6.69,0,0,1,3.11-.69A5.57,5.57,0,0,1,119.22,126.08Z"/><path class="cls-2" d="M158,120.16l-6.14,18.2h-2l-5.33-15.52-5.36,15.52h-2L131,120.16h2l5.25,15.65,5.43-15.65h1.8l5.35,15.73,5.33-15.73Z"/><path class="cls-2" d="M161,121.31a1.29,1.29,0,0,1-.39-.94,1.24,1.24,0,0,1,.39-.91,1.3,1.3,0,0,1,1-.39,1.34,1.34,0,0,1,1,.38,1.2,1.2,0,0,1,.39.9,1.36,1.36,0,0,1-2.31,1Zm0,3.38h1.85v13.67H161Z"/><path class="cls-2" d="M175.19,137.53a3.67,3.67,0,0,1-1.29.72,5.3,5.3,0,0,1-1.6.24,3.62,3.62,0,0,1-4-4v-8.26h-2.45v-1.56h2.45v-3h1.84v3h4.16v1.56h-4.16v8.16a2.56,2.56,0,0,0,.62,1.86,2.32,2.32,0,0,0,1.75.64,3.24,3.24,0,0,0,1.11-.19,2.68,2.68,0,0,0,.92-.52Z"/><path class="cls-2" d="M189.61,126.08a5.84,5.84,0,0,1,1.52,4.35v7.93h-1.85v-7.75a4.5,4.5,0,0,0-1.07-3.25,4,4,0,0,0-3-1.11,4.63,4.63,0,0,0-3.49,1.31,4.94,4.94,0,0,0-1.29,3.63v7.17h-1.85V119.07h1.85v8a5,5,0,0,1,2.08-1.85,6.86,6.86,0,0,1,3-.65A5.59,5.59,0,0,1,189.61,126.08Z"/><path class="cls-2" d="M203.35,120.16h1.92V136.7h10.19v1.66H203.35Z"/><path class="cls-2" d="M220.09,137.6a6.57,6.57,0,0,1-2.5-2.49,7.52,7.52,0,0,1,0-7.17,6.45,6.45,0,0,1,2.5-2.47,7.57,7.57,0,0,1,7.12,0,6.36,6.36,0,0,1,2.49,2.47,7.67,7.67,0,0,1,0,7.17,6.48,6.48,0,0,1-2.49,2.49,7.56,7.56,0,0,1-7.12,0Zm6.17-1.41a4.56,4.56,0,0,0,1.81-1.88,6.29,6.29,0,0,0,0-5.57,4.56,4.56,0,0,0-1.81-1.88,5.42,5.42,0,0,0-5.22,0,4.71,4.71,0,0,0-1.82,1.88,6.21,6.21,0,0,0,0,5.57,4.71,4.71,0,0,0,1.82,1.88,5.49,5.49,0,0,0,5.22,0Z"/><path class="cls-2" d="M245.47,124.69l-6.09,13.67h-1.9l-6-13.67h1.92l5.12,11.64,5.18-11.64Z"/><path class="cls-2" d="M259.58,132.1H248.14a4.89,4.89,0,0,0,1.64,3.44,5.42,5.42,0,0,0,3.74,1.31,6,6,0,0,0,2.35-.45,5.05,5.05,0,0,0,1.84-1.34l1,1.2a5.92,5.92,0,0,1-2.27,1.66,8.25,8.25,0,0,1-6.74-.32,6.45,6.45,0,0,1-2.53-2.49,7,7,0,0,1-.91-3.59,7.3,7.3,0,0,1,.87-3.58,6.31,6.31,0,0,1,2.39-2.47,7,7,0,0,1,6.83,0,6.32,6.32,0,0,1,2.36,2.45,7.43,7.43,0,0,1,.86,3.6Zm-9.92-4.67a5,5,0,0,0-1.52,3.29h9.7a5,5,0,0,0-1.52-3.29,5,5,0,0,0-6.66,0Z"/><path class="cls-2" d="M264.57,136.06a1.39,1.39,0,0,1,.4,1,2.87,2.87,0,0,1-.1.68,7.14,7.14,0,0,1-.27.83l-1.09,3.59h-1.25l.88-3.77a1.35,1.35,0,0,1-.67-.48,1.43,1.43,0,0,1-.26-.85,1.38,1.38,0,0,1,.39-1,1.31,1.31,0,0,1,1-.4A1.29,1.29,0,0,1,264.57,136.06Z"/><path class="cls-2" d="M277.22,137.87a7.13,7.13,0,0,1-2.87-1.72l.75-1.48a7.29,7.29,0,0,0,2.63,1.6,9.53,9.53,0,0,0,3.38.61,6.19,6.19,0,0,0,3.67-.9,2.75,2.75,0,0,0,1.22-2.32,2.36,2.36,0,0,0-.66-1.75,4.71,4.71,0,0,0-1.63-1,25.25,25.25,0,0,0-2.68-.76,28.47,28.47,0,0,1-3.27-1,5.34,5.34,0,0,1-2.1-1.47,3.91,3.91,0,0,1-.87-2.68,4.58,4.58,0,0,1,.73-2.51,5,5,0,0,1,2.24-1.81,9.13,9.13,0,0,1,3.74-.67,10.81,10.81,0,0,1,3.05.43,8.69,8.69,0,0,1,2.59,1.18l-.65,1.53a8.88,8.88,0,0,0-2.44-1.13,9.22,9.22,0,0,0-2.55-.38,5.86,5.86,0,0,0-3.6.93,2.85,2.85,0,0,0-1.21,2.38,2.38,2.38,0,0,0,.66,1.75,4.52,4.52,0,0,0,1.67,1c.66.23,1.56.49,2.69.76a28,28,0,0,1,3.24,1,5.29,5.29,0,0,1,2.09,1.45,3.87,3.87,0,0,1,.86,2.64,4.5,4.5,0,0,1-.74,2.51,5.06,5.06,0,0,1-2.28,1.8,9.53,9.53,0,0,1-3.77.66A11.81,11.81,0,0,1,277.22,137.87Z"/><path class="cls-2" d="M291.67,121.31a1.29,1.29,0,0,1-.39-.94,1.24,1.24,0,0,1,.39-.91,1.3,1.3,0,0,1,1-.39,1.34,1.34,0,0,1,1,.38,1.2,1.2,0,0,1,.39.9,1.36,1.36,0,0,1-2.31,1Zm0,3.38h1.85v13.67h-1.85Z"/><path class="cls-2" d="M309.75,126.08a5.84,5.84,0,0,1,1.52,4.35v7.93h-1.85v-7.75a4.54,4.54,0,0,0-1.06-3.25,4,4,0,0,0-3-1.11,4.65,4.65,0,0,0-3.5,1.31,4.94,4.94,0,0,0-1.29,3.63v7.17h-1.84V124.69h1.76v2.52a5.18,5.18,0,0,1,2.1-1.94,6.68,6.68,0,0,1,3.1-.69A5.58,5.58,0,0,1,309.75,126.08Z"/><path class="cls-2" d="M318.38,137.61a6.43,6.43,0,0,1-2.51-2.48,7.15,7.15,0,0,1-.91-3.61,7,7,0,0,1,.91-3.58,6.41,6.41,0,0,1,2.51-2.47,7.39,7.39,0,0,1,3.63-.89,7,7,0,0,1,3.16.69,5.21,5.21,0,0,1,2.19,2l-1.37.93a4.4,4.4,0,0,0-1.72-1.52,5.06,5.06,0,0,0-2.26-.51,5.4,5.4,0,0,0-2.67.67,4.63,4.63,0,0,0-1.84,1.88,6.14,6.14,0,0,0,0,5.58,4.6,4.6,0,0,0,1.84,1.87,5.39,5.39,0,0,0,2.67.66,5.19,5.19,0,0,0,2.26-.49,4.22,4.22,0,0,0,1.72-1.51l1.37.94a5.12,5.12,0,0,1-2.21,2,7,7,0,0,1-3.14.69A7.39,7.39,0,0,1,318.38,137.61Z"/><path class="cls-2" d="M342.65,132.1H331.21a4.89,4.89,0,0,0,1.64,3.44,5.42,5.42,0,0,0,3.74,1.31,6,6,0,0,0,2.34-.45,5.09,5.09,0,0,0,1.85-1.34l1,1.2a5.92,5.92,0,0,1-2.27,1.66,7.76,7.76,0,0,1-3,.57,7.68,7.68,0,0,1-3.73-.89,6.45,6.45,0,0,1-2.53-2.49,7,7,0,0,1-.91-3.59,7.3,7.3,0,0,1,.87-3.58,6.24,6.24,0,0,1,2.39-2.47,6.66,6.66,0,0,1,3.42-.89,6.58,6.58,0,0,1,3.4.89,6.27,6.27,0,0,1,2.37,2.45,7.43,7.43,0,0,1,.86,3.6Zm-9.92-4.67a5,5,0,0,0-1.52,3.29h9.7a5,5,0,0,0-1.52-3.29,5,5,0,0,0-6.66,0Z"/><path class="cls-2" d="M357.08,120.16v18.2h-1.87V121.83h-4.29v-1.67Z"/><path class="cls-2" d="M372.63,122.39a10.42,10.42,0,0,1,1.92,6.72,11.4,11.4,0,0,1-1,5.14,7.23,7.23,0,0,1-2.91,3.19,8.58,8.58,0,0,1-4.37,1.08,8.16,8.16,0,0,1-4.31-1l.75-1.51a6.31,6.31,0,0,0,3.54.86,6,6,0,0,0,4.73-1.91,8.05,8.05,0,0,0,1.72-5.55c0-.45,0-.95-.08-1.48a5,5,0,0,1-2.16,2.3,7,7,0,0,1-3.41.82,7.21,7.21,0,0,1-3.18-.68,5.18,5.18,0,0,1-2.17-1.91,5.25,5.25,0,0,1-.78-2.87,5.44,5.44,0,0,1,.8-2.94,5.25,5.25,0,0,1,2.23-2,7.14,7.14,0,0,1,3.18-.69A6.7,6.7,0,0,1,372.63,122.39Zm-2.9,6.56a4.12,4.12,0,0,0,1.65-1.43,3.61,3.61,0,0,0,.6-2,3.55,3.55,0,0,0-.56-1.92,4,4,0,0,0-1.65-1.43,5.7,5.7,0,0,0-2.6-.55,4.69,4.69,0,0,0-3.21,1.08,3.64,3.64,0,0,0-1.24,2.87A3.59,3.59,0,0,0,364,128.4a4.89,4.89,0,0,0,3.34,1.07A5.36,5.36,0,0,0,369.73,129Z"/><path class="cls-2" d="M390.32,130.54a4.22,4.22,0,0,1,.93,2.75,4.61,4.61,0,0,1-.86,2.77,5.35,5.35,0,0,1-2.46,1.82,10,10,0,0,1-3.76.64,8.35,8.35,0,0,1-5.14-1.41,4.52,4.52,0,0,1-1.88-3.82,4.33,4.33,0,0,1,.9-2.77,5.44,5.44,0,0,1,2.61-1.7,4.59,4.59,0,0,1-2.13-1.57,4.42,4.42,0,0,1,1-5.94,7.52,7.52,0,0,1,4.64-1.3,8.91,8.91,0,0,1,3.37.58,5.11,5.11,0,0,1,2.25,1.68,4.16,4.16,0,0,1,.8,2.55,4,4,0,0,1-.75,2.43,4.68,4.68,0,0,1-2.16,1.57A5.42,5.42,0,0,1,390.32,130.54Zm-2.36,5.4a3.3,3.3,0,0,0,0-5.34,6.42,6.42,0,0,0-3.79-1,6.35,6.35,0,0,0-3.75,1,3.32,3.32,0,0,0,0,5.36,7.78,7.78,0,0,0,7.56,0Zm-7.09-8.68a5.46,5.46,0,0,0,3.3.88,5.52,5.52,0,0,0,3.32-.88,2.94,2.94,0,0,0,0-4.78,6.53,6.53,0,0,0-6.58,0,3,3,0,0,0,0,4.78Z"/><path class="cls-2" d="M406.27,136.7v1.66H393.51V137l7.56-7.41A9.86,9.86,0,0,0,403,127.2a4.65,4.65,0,0,0,.51-2.07,3,3,0,0,0-1.11-2.51,4.88,4.88,0,0,0-3.16-.9,6.24,6.24,0,0,0-5,2L393,122.61a6.92,6.92,0,0,1,2.72-1.93,9.76,9.76,0,0,1,3.73-.67,6.82,6.82,0,0,1,4.41,1.31,4.38,4.38,0,0,1,1.62,3.6,6.21,6.21,0,0,1-.62,2.7,11.32,11.32,0,0,1-2.37,3l-6.19,6.09Z"/></g></svg>